<svg xmlns="http://www.w3.org/2000/svg" xmlns:xlink="http://www.w3.org/1999/xlink" width="68" height="76" viewBox="0 0 68 76"><defs><path id="jn2ma" d="M679.43 1550.16l-7.6-2.53h-23.66l-7.6 2.53c-7.82 2.6-13.1 10.8-13.1 19.05h65.05c0-8.24-5.27-16.44-13.09-19.05z"/><path id="jn2mb" d="M674.73 1518.86l-3.5-.5a25.09 25.09 0 0 1-14.19-7.1c-3.72 0-7.22 1.75-9.46 4.73l-2.3 3.08c.12 3.45.43 7.01.93 10.37.63 4.16 1.16 8.07 5.27 11.63l-.07.09-3.24 6.47a57.66 57.66 0 0 0 8.57 16.35l3.26 5.23 3.26-5.23a57.58 57.58 0 0 0 8.57-16.35l-3.24-6.47-.07-.09a14.57 14.57 0 0 0 4.76-8.5l.52-3.19c.5-3.4.82-7.03.93-10.52z"/><path id="jn2mc" d="M674.73 1518.86l-3.5-.5a25.09 25.09 0 0 1-14.19-7.1c-3.72 0-7.22 1.75-9.46 4.73l-2.3 3.08c.12 3.45.43 7.01.93 10.37.63 4.16 1.16 8.07 5.27 11.63l-.07.09c-1.09 2.17 8.74 8.68 8.74 8.68l8.44-8.68-.07-.09a14.57 14.57 0 0 0 4.76-8.5l.52-3.19c.5-3.4.82-7.03.93-10.52z"/><path id="jn2md" d="M680.7 1517.17v9.32a2.96 2.96 0 0 1-2.96 2.95h-3.55l-.4-.06a92.98 92.98 0 0 0 .98-12.2h.01z"/><path id="jn2me" d="M661.32 1502.4a13.5 13.5 0 0 1 13.46 13.5c0 .75-.01 1.94-.05 2.96l-3.5-.5a25.09 25.09 0 0 1-14.19-7.1c-3.72 0-7.22 1.75-9.46 4.73l-2.3 3.08a91.43 91.43 0 0 1-.06-3.17 13.5 13.5 0 0 1 13.46-13.5H660z"/><path id="jn2mf" d="M660 1532.4a2.96 2.96 0 1 1 0 5.91h-2.96a2.96 2.96 0 1 1 0-5.91z"/><path id="jn2mg" d="M646.21 1529.44h-3.95a2.96 2.96 0 0 1-2.96-2.95v-9.32h5.92l.06 1.9c.12 3.45.43 7.01.93 10.37z"/><path id="jn2mh" d="M641.03 1551.56l6.23-2.07a59.26 59.26 0 0 0 4.2 9.13l.01.01c1.21 2.13 2.57 4.2 4.05 6.18l1.82 2.92h-28.32c.58-7.32 5.46-13.98 12.01-16.17zm14.54-16.2c0-.82.66-1.48 1.47-1.48H660a1.48 1.48 0 0 1 0 2.95h-2.96c-.81 0-1.47-.66-1.47-1.47zm-2.7 1.47a4.44 4.44 0 0 0 4.17 2.96H660a4.43 4.43 0 1 0 0-8.87h-2.96a4.44 4.44 0 0 0-4.18 2.96h-4.31c-.74-2.46-1.59-9.7-1.77-14.35l1.99-2.65a10.4 10.4 0 0 1 7.69-4.12 26.74 26.74 0 0 0 14.57 7.06l2.17.31a90.98 90.98 0 0 1-.87 9.04c-.13.91-.24 1.5-.51 3.15-.78 4.7-4.29 8.94-8.91 10.1-1.9.47-3.91.47-5.82 0a11.99 11.99 0 0 1-7.24-5.59zm-9.13-4.43v-1.48h1.21l.32 1.89c.06.36.13.71.21 1.07h-.26c-.82 0-1.48-.66-1.48-1.48zm16.26-34.44c10.1 0 18.4 7.83 19.16 17.74h-2.9a14.97 14.97 0 0 0-14.94-14.79h-2.64a14.97 14.97 0 0 0-14.94 14.79h-2.9a19.2 19.2 0 0 1 19.16-17.74zm19.22 28.53c0 .81-.67 1.48-1.48 1.48h-2.26c.38-2.92.63-6.01.73-9.06v-.26h3zm-5.93-9.35v.02l-1.85-.27a23.75 23.75 0 0 1-13.35-6.67 1.48 1.48 0 0 0-1.05-.44c-3.97 0-7.77 1.81-10.28 4.87a12.02 12.02 0 0 1 11.92-10.78h2.64c6.63 0 11.99 5.42 11.98 12.03v1.24zm-31.03 10.83c-.81 0-1.48-.67-1.48-1.48v-7.84h3l.02.47v.01c.1 2.97.35 5.99.72 8.84h-2.26zm48.72 39.76h-28.32l1.82-2.92a59.25 59.25 0 0 0 4.08-6.23l.02-.04a59.21 59.21 0 0 0 4.16-9.05l6.23 2.07c6.55 2.2 11.43 8.85 12.01 16.17zm-39.44-23.52l6.23 6.24-4.69 4.95a56.32 56.32 0 0 1-3.3-7.67zm8.27 4.09l-2.9-2.89a14.96 14.96 0 0 0 5.5.12zm7.1 7.1l-5.01-5.01 6.31-6.68 2.02 4.02a56.31 56.31 0 0 1-3.31 7.68zm-6.91 11.01l-2-3.22a56.37 56.37 0 0 1-3.4-5.08l5.26-5.57 5.56 5.55a56.3 56.3 0 0 1-3.34 5c-.08.1.03-.06-2.08 3.32zm-32.52 4.28h65.04c.82 0 1.48-.66 1.48-1.48 0-9.13-5.93-17.73-14.1-20.45l-7.03-2.34-2.52-5.05a16.2 16.2 0 0 0 4.38-8.56l.32-1.89h2.69a4.44 4.44 0 0 0 4.43-4.43v-9.32A22.2 22.2 0 0 0 660 1495a22.16 22.16 0 0 0-22.17 22.17v9.32a4.44 4.44 0 0 0 2.95 4.18v1.73a4.44 4.44 0 0 0 4.44 4.43h1.3a16.04 16.04 0 0 0 3.13 4.55l-2.52 5.04-7.03 2.34c-8.17 2.72-14.1 11.32-14.1 20.45 0 .82.66 1.48 1.48 1.48z"/></defs><g><g transform="translate(-626 -1495)"><g opacity=".4"><use fill="#00bad8" xlink:href="#jn2ma"/></g><g><use fill="#fff" xlink:href="#jn2mb"/></g><g><use fill="#fff" xlink:href="#jn2mc"/></g><g opacity=".4"><use fill="#00bad8" xlink:href="#jn2md"/></g><g opacity=".4"><use fill="#00bad8" xlink:href="#jn2me"/></g><g opacity=".4"><g opacity=".4"><use fill="#00bad8" xlink:href="#jn2mf"/></g><g opacity=".4"><use fill="#00bad8" xlink:href="#jn2mg"/></g></g><g><use fill="#00bad8" xlink:href="#jn2mh"/></g></g></g></svg>