<svg xmlns="http://www.w3.org/2000/svg" xmlns:xlink="http://www.w3.org/1999/xlink" width="64" height="69" viewBox="0 0 64 69"><defs><path id="ay0wa" d="M1031.35 1568.91v-65.29h44.8v65.3z"/><path id="ay0wb" d="M1088.2 1549.34h-5.69v8.63a2.63 2.63 0 0 0 2.64 2.64h.42a2.63 2.63 0 0 0 2.63-2.64v-8.63z"/><path id="ay0wc" d="M1082.51 1549.34v-34.95h5.7v34.95z"/><path id="ay0wd" d="M1083.66 1514.4v-5.56h3.4v5.55z"/><path id="ay0we" d="M1074.8 1567.56h-42.1v-62.58h42.1zm1.35-65.3h-44.8c-.74 0-1.35.62-1.35 1.36v65.3c0 .74.6 1.35 1.35 1.35h44.8c.74 0 1.35-.6 1.35-1.36v-65.29c0-.74-.6-1.35-1.35-1.35z"/><path id="ay0wf" d="M1039.99 1516.5h27.13a1.35 1.35 0 1 0 0-2.72H1040a1.35 1.35 0 1 0 0 2.71z"/><path id="ay0wg" d="M1039.99 1527.06h27.52a1.35 1.35 0 1 0 0-2.71h-27.52a1.35 1.35 0 1 0 0 2.7z"/><path id="ay0wh" d="M1039.99 1537.62h27.52a1.35 1.35 0 1 0 0-2.7h-27.52a1.35 1.35 0 1 0 0 2.7z"/><path id="ay0wi" d="M1039.99 1548.33h27.52a1.35 1.35 0 1 0 0-2.7h-27.52a1.35 1.35 0 1 0 0 2.7z"/><path id="ay0wj" d="M1039.99 1558.9h27.52a1.35 1.35 0 1 0 0-2.71h-27.52a1.35 1.35 0 1 0 0 2.7z"/><path id="ay0wk" d="M1086.85 1557.97c0 .7-.58 1.28-1.28 1.28h-.42c-.71 0-1.28-.57-1.28-1.28v-7.27h2.98zm-1.84-47.78h.7v2.85h-.7zm-1.14 5.56h2.98v32.24h-2.98zm-2.71 42.22a4 4 0 0 0 2.84 3.82v1.9a1.35 1.35 0 1 0 2.71 0v-1.9a4 4 0 0 0 2.85-3.82v-38.37a2.44 2.44 0 0 1 1.49 2.24v9.76a1.35 1.35 0 1 0 2.7 0v-9.76a5.16 5.16 0 0 0-4.2-5.06v-2.39c0-.67-.5-1.23-1.14-1.33v-4.22c0-.75-.6-1.36-1.35-1.36h-3.4c-.75 0-1.36.61-1.36 1.36v4.22c-.65.1-1.14.66-1.14 1.33v43.58z"/></defs><g><g transform="translate(-1030 -1502)"><g opacity=".4"><use fill="#00bad8" xlink:href="#ay0wa"/></g><g opacity=".4"><use fill="#00bad8" xlink:href="#ay0wb"/></g><g opacity=".4"><use fill="#00bad8" xlink:href="#ay0wc"/></g><g opacity=".4"><use fill="#00bad8" xlink:href="#ay0wd"/></g><g><g><use fill="#00bad8" xlink:href="#ay0we"/></g><g><use fill="#00bad8" xlink:href="#ay0wf"/></g><g><use fill="#00bad8" xlink:href="#ay0wg"/></g><g><use fill="#00bad8" xlink:href="#ay0wh"/></g><g><use fill="#00bad8" xlink:href="#ay0wi"/></g><g><use fill="#00bad8" xlink:href="#ay0wj"/></g><g><use fill="#00bad8" xlink:href="#ay0wk"/></g></g></g></g></svg>