<svg xmlns="http://www.w3.org/2000/svg" xmlns:xlink="http://www.w3.org/1999/xlink" width="64" height="65" viewBox="0 0 64 65"><defs><path id="va17a" d="M491 1533.33a1.92 1.92 0 1 1-3.84 0c0-6.73-2.62-13.07-7.39-17.83a25.06 25.06 0 0 0-17.84-7.4 1.92 1.92 0 1 1 0-3.83c7.77 0 15.07 3.02 20.56 8.51a28.88 28.88 0 0 1 8.5 20.55z"/><path id="va17b" d="M447.5 1525.22l-.05-.05-6.23-6.23-6.27-6.27 3.26-3.26 12.54 12.54-3.25 3.27zm30.63 36.75c-2.76 2.76-7.64 3.22-13.75 1.29-6.53-2.07-13.5-6.6-19.64-12.73-6.14-6.14-10.66-13.11-12.73-19.65-1.93-6.1-1.48-10.98 1.29-13.74l.34-.35 9.73 9.74-.89.89c-3.7 3.7.75 12.02 7.05 18.32 4.71 4.72 10.56 8.4 14.75 8.4 1.41 0 2.64-.42 3.57-1.36l.9-.89 9.72 9.74zm4.46-1.66l-12.54-12.54 3.26-3.26 12.54 12.54-3.26 3.26zm-6.56-18.51a3.84 3.84 0 0 0-5.43 0l-3.26 3.26a3.84 3.84 0 0 0-.97 3.78l-1.23 1.23c-.88.88-6.32-.47-12.9-7.04-6.57-6.58-7.92-12.02-7.04-12.9l1.23-1.23a3.83 3.83 0 0 0 3.78-.97l3.26-3.26a3.84 3.84 0 0 0 0-5.43l-12.54-12.54a3.81 3.81 0 0 0-5.43 0l-3.26 3.26a3.84 3.84 0 0 0-.97 3.78s-1.05 1.05-1.1 1.12c-3.47 3.86-4.12 9.93-1.82 17.19 2.25 7.1 7.11 14.63 13.67 21.2 6.57 6.56 14.1 11.41 21.2 13.67 2.86.9 5.53 1.35 7.95 1.35 3.98 0 7.3-1.2 9.67-3.58l.69-.69a3.86 3.86 0 0 0 3.78-.97l3.26-3.26a3.84 3.84 0 0 0 0-5.43z"/><path id="va17c" d="M473.31 1544.51l12.54 12.54-3.26 3.26-12.54-12.54z"/><path id="va17d" d="M481.26 1533.33a1.92 1.92 0 0 1-3.84 0c0-4.13-1.6-8.02-4.53-10.95a15.38 15.38 0 0 0-10.96-4.54 1.92 1.92 0 0 1 0-3.84 19.2 19.2 0 0 1 13.67 5.67 19.2 19.2 0 0 1 5.66 13.66z"/><path id="va17e" d="M468.74 1551.9l9.73 9.73-.34.34c-2.76 2.76-7.64 3.22-13.75 1.29-6.53-2.07-13.5-6.6-19.64-12.73-6.14-6.14-10.66-13.11-12.73-19.65-1.93-6.1-1.48-10.98 1.29-13.74l.34-.35 9.73 9.74-.89.89c-3.7 3.7.75 12.02 7.05 18.32 4.71 4.72 10.56 8.4 14.75 8.4 1.41 0 2.64-.42 3.57-1.36z"/><path id="va17f" d="M471.53 1533.33a1.92 1.92 0 1 1-3.84 0c0-1.55-.58-2.96-1.69-4.07a5.57 5.57 0 0 0-4.06-1.68 1.92 1.92 0 1 1 0-3.84c2.6 0 4.94.97 6.78 2.81a9.4 9.4 0 0 1 2.8 6.78z"/><path id="va17g" d="M450.75 1521.95l-3.25 3.27-.05-.05-6.23-6.23-6.27-6.27 3.26-3.26z"/></defs><g><g transform="translate(-427 -1504)"><g><g><use fill="#00bad8" xlink:href="#va17a"/></g><g><use fill="#00bad8" xlink:href="#va17b"/></g></g><g opacity=".4"><use fill="#00bad8" xlink:href="#va17c"/></g><g><use fill="#00bad8" xlink:href="#va17d"/></g><g opacity=".4"><use fill="#00bad8" xlink:href="#va17e"/></g><g><use fill="#00bad8" xlink:href="#va17f"/></g><g opacity=".4"><use fill="#00bad8" xlink:href="#va17g"/></g></g></g></svg>