<svg xmlns="http://www.w3.org/2000/svg" xmlns:xlink="http://www.w3.org/1999/xlink" width="80" height="60" viewBox="0 0 80 60"><defs><path id="8joca" d="M849.41 1541.3c-.77 0-1.6 0-2.31-.08.75 0 1.6.08 2.31.08 14.15 0 25.72-8.24 25.72-18.35 0-10.11-11.5-18.34-25.72-18.34-14.21 0-25.72 8.23-25.72 18.34.06 3 1.06 5.9 2.86 8.28l-2.78-3.8v15.3c0 8.65 8.58 16.2 20.4 17.95l1.85.28H900.39v-19.66z"/><path id="8jocb" d="M859.83 1522.95c0-4.1-4.66-7.44-10.42-7.44-5.75 0-10.42 3.33-10.42 7.44s4.67 7.45 10.42 7.45c5.76 0 10.42-3.34 10.42-7.45z"/><path id="8jocc" d="M849.41 1528.8c4.82 0 8.81-2.67 8.81-5.83 0-3.17-4.03-5.84-8.8-5.84-4.78 0-8.82 2.67-8.82 5.84 0 3.16 4.04 5.83 8.81 5.83z"/><path id="8jocd" d="M872.16 1531.4a22.68 22.68 0 0 1-8.65 6.84l-8.44 3.06h19.98v-13.88z"/><path id="8joce" d="M849.41 1517.13c4.82 0 8.81 2.67 8.81 5.84 0 3.16-4.03 5.83-8.8 5.83-4.78 0-8.82-2.67-8.82-5.83 0-3.17 4.04-5.85 8.81-5.85zm0 14.89c6.63 0 12.03-4.07 12.03-9.05 0-4.99-5.39-9.05-12.03-9.05s-12.02 4.06-12.02 9.05c0 4.98 5.4 9.05 12.02 9.05z"/><path id="8jocf" d="M898.78 1559.45h-3.21v-8.14a1.6 1.6 0 0 0-3.22 0v8.15h-6.43v-4.42a1.6 1.6 0 0 0-3.21 0v4.42h-6.43v-4.42a1.6 1.6 0 0 0-3.22 0v4.42h-6.43v-8.15a1.6 1.6 0 0 0-3.22 0v8.15h-6.15v-4.42a1.6 1.6 0 0 0-3.22 0v4.42h-6.43v-4.42a1.6 1.6 0 0 0-3.21 0v4.04c-10.86-1.61-19.02-8.33-19.02-16.37v-10.37c4.6 6.29 13.65 10.56 24.11 10.56h49.3zm-25.25-27.1v7.34h-9.33a24.24 24.24 0 0 0 9.25-7.35zm-24.12-26.12c13.27 0 24.12 7.5 24.12 16.74 0 9.23-10.8 16.73-24.12 16.73-13.33 0-24.11-7.5-24.11-16.73s10.86-16.74 24.11-16.74zm50.98 33.46h-23.73v-16.74c0-11-12.23-19.95-27.33-19.95-15.1 0-27.33 8.95-27.33 19.95v19.78c0 10.13 10.37 18.49 23.73 19.76h.27c1.11.1 2.24.17 3.38.17h51.01c.89 0 1.61-.72 1.61-1.6v-19.76c0-.9-.72-1.61-1.6-1.61z"/></defs><g><g transform="translate(-822 -1503)"><g opacity=".4"><use fill="#00bad8" xlink:href="#8joca"/></g><g><use fill="#fff" xlink:href="#8jocb"/></g><g><use fill="#fff" xlink:href="#8jocc"/></g><g><use fill="#00bad8" xlink:href="#8jocd"/></g><g><use fill="#00bad8" xlink:href="#8joce"/></g><g><use fill="#00bad8" xlink:href="#8jocf"/></g></g></g></svg>