<svg xmlns="http://www.w3.org/2000/svg" xmlns:xlink="http://www.w3.org/1999/xlink" width="56" height="68" viewBox="0 0 56 68"><defs><path id="rlk7a" d="M1486.45 1511.3v21.67a37.27 37.27 0 0 1-26.56 35.7 37.27 37.27 0 0 1-26.56-35.7v-21.67c4.4 0 7.97-3.57 7.97-7.97h37.18c0 4.4 3.57 7.97 7.97 7.97z"/><path id="rlk7b" d="M1474.28 1508.64h-28.78a13.35 13.35 0 0 1-6.86 6.86v17.47c0 13.69 8.48 25.6 21.25 30.11a31.75 31.75 0 0 0 21.25-30.1v-17.48a13.35 13.35 0 0 1-6.86-6.86z"/><path id="rlk7c" d="M1459.9 1522.72a10.64 10.64 0 0 1 0 21.25 10.64 10.64 0 0 1 0-21.25z"/><path id="rlk7d" d="M1485.13 1532.97a35.72 35.72 0 0 1-25.24 34.31 35.91 35.91 0 0 1-25.23-34.3v-20.45a9.32 9.32 0 0 0 7.87-7.87h34.72a9.32 9.32 0 0 0 7.88 7.87zm1.32-23a6.65 6.65 0 0 1-6.64-6.64c0-.74-.6-1.33-1.33-1.33h-37.18c-.74 0-1.33.6-1.33 1.33a6.65 6.65 0 0 1-6.64 6.64c-.74 0-1.33.6-1.33 1.33v21.67c0 16.9 11.01 32.03 27.5 36.97a1.33 1.33 0 0 0 .77 0 38.58 38.58 0 0 0 27.51-36.97v-21.67c0-.74-.6-1.33-1.33-1.33z"/><path id="rlk7e" d="M1475.5 1508.1c-.21-.48-.7-.79-1.22-.79h-9.08a1.33 1.33 0 0 0 0 2.66h8.24a14.6 14.6 0 0 0 6.37 6.37v16.63c0 13-7.8 24.21-19.92 28.7a30.25 30.25 0 0 1-19.92-28.7v-16.63a14.6 14.6 0 0 0 6.37-6.37h19.78a1.33 1.33 0 0 0 0-2.66h-20.62c-.53 0-1 .31-1.22.8a11.96 11.96 0 0 1-6.17 6.17c-.49.22-.8.7-.8 1.22v17.47c0 14.24 8.8 26.65 22.14 31.37a1.33 1.33 0 0 0 .88 0 33.06 33.06 0 0 0 22.14-31.37v-17.47c0-.53-.31-1-.8-1.22a11.96 11.96 0 0 1-6.17-6.17z"/><path id="rlk7f" d="M1469.19 1533.34a9.3 9.3 0 0 1-18.6 0 9.3 9.3 0 0 1 18.6 0zm-21.25 0c0 6.6 5.36 11.96 11.95 11.96a11.97 11.97 0 0 0 0-23.9c-6.59 0-11.95 5.35-11.95 11.94z"/><path id="rlk7g" d="M1456.85 1533.73a1.33 1.33 0 0 0-1.88 1.88l2.65 2.66a1.33 1.33 0 0 0 1.88 0l6.64-6.64a1.33 1.33 0 0 0-1.88-1.88l-5.7 5.7z"/></defs><g><g transform="translate(-1432 -1502)"><g opacity=".4"><use fill="#00bad8" xlink:href="#rlk7a"/></g><g opacity=".4"><use fill="#fff" xlink:href="#rlk7b"/></g><g opacity=".4"><use fill="#00bad8" xlink:href="#rlk7c"/></g><g><use fill="#00bad8" xlink:href="#rlk7d"/></g><g><use fill="#00bad8" xlink:href="#rlk7e"/></g><g><use fill="#00bad8" xlink:href="#rlk7f"/></g><g><use fill="#00bad8" xlink:href="#rlk7g"/></g></g></g></svg>