<svg xmlns="http://www.w3.org/2000/svg" xmlns:xlink="http://www.w3.org/1999/xlink" width="64" height="64" viewBox="0 0 64 64"><defs><path id="p56ha" d="M1285.54 1534.13v-22.44c0-4.17-3.13-7.54-7-7.54-3.86 0-7 3.38-7 7.54v22.44z"/><path id="p56hb" d="M1276.23 1534.13h4.62v31.7h-4.62z"/><path id="p56hc" d="M1249.7 1505.36h-7.24s-18.3.64-18.3 15.08c0 0 5.84-6.08 14.6-4.46 0 0 3.24 0 3.24 4.46v45.4h8.92v-45.29s-.4-4.6 4.16-4.6h7.7v-10.59z"/><path id="p56hd" d="M1263 1515.5v-10.14h-20.92s-14.7-.29-18.1 13.77c0 0 5.22-3.92 11.98-3.92 6.76 0 6.12 5.51 6.12 9.2h9.34v-5.75c0-1.8.7-3.17 11.59-3.17z"/><path id="p56he" d="M1284.39 1511.7v17.13h-11.7v-17.16c0-3.53 2.63-6.4 5.86-6.4 3.22 0 5.84 2.87 5.84 6.4zm0 21.3h-11.7v-1.87h11.7zm-4.7 24.06h-2.3v-21.78h2.3zm-2.3 7.64v-5.34h2.3v5.34zm-7-53.03v22.44c0 .64.52 1.15 1.15 1.15h3.55V1567h6.9v-31.72h3.55c.63 0 1.15-.51 1.15-1.15v-22.44c0-4.8-3.66-8.69-8.15-8.69-4.5 0-8.15 3.87-8.15 8.67z"/><path id="p56hf" d="M1242.46 1506.51h11.47v8.4a4.72 4.72 0 0 0-2.8 1.45 6.07 6.07 0 0 0-1.36 4.23v2.7h-6.62v-2.87c0-4.33-2.73-5.55-4.27-5.61a17.53 17.53 0 0 0-13.35 3c2.02-10.66 16.31-11.28 16.93-11.3zm19.16 8.3h-5.4v-8.3h5.4zm-18.47 49.86v-39.1h6.62v39.13zm-19.43-43.16c.43.17.93.07 1.26-.27a16.25 16.25 0 0 1 10.82-4.39c.93 0 1.85.09 2.76.26h.2c.09 0 2.08.04 2.08 3.3v45.44c0 .64.52 1.15 1.15 1.15h8.93c.64 0 1.15-.51 1.15-1.15v-45.4c-.05-.9.22-1.8.76-2.52.6-.58 1.42-.88 2.25-.8h7.7c.63 0 1.14-.52 1.14-1.16v-10.61c0-.64-.51-1.15-1.15-1.15h-20.35c-.2 0-19.42.83-19.42 16.23 0 .47.28.9.72 1.07z"/></defs><g><g transform="translate(-1223 -1503)"><g opacity=".4"><use fill="#00bad8" xlink:href="#p56ha"/></g><g><use fill="#fff" xlink:href="#p56hb"/></g><g opacity=".4"><use fill="#00bad8" xlink:href="#p56hc"/></g><g><use fill="#fff" xlink:href="#p56hd"/></g><g><use fill="#00bad8" xlink:href="#p56he"/></g><g><use fill="#00bad8" xlink:href="#p56hf"/></g></g></g></svg>