<svg xmlns="http://www.w3.org/2000/svg" xmlns:xlink="http://www.w3.org/1999/xlink" width="512" height="12255" viewBox="0 0 512 12255"><svg viewBox="0 0 129 129" width="129" height="129" id="arrow-down" y="0"><path d="M121.3 34.6c-1.6-1.6-4.2-1.6-5.8 0l-51 51.1-51.1-51.1c-1.6-1.6-4.2-1.6-5.8 0-1.6 1.6-1.6 4.2 0 5.8l53.9 53.9c.8.8 1.8 1.2 2.9 1.2 1 0 2.1-.4 2.9-1.2l53.9-53.9c1.7-1.6 1.7-4.2.1-5.8z"></path></svg><svg width="11" height="18" viewBox="0 0 11 18" id="arrow-left" y="129"><defs><path id="a" d="M46 1043l2.12-2.12-6.87-6.88 6.87-6.88L46 1025l-9 9z"></path></defs><use xlink:href="#a" transform="translate(-37 -1025)"></use></svg><svg viewBox="0 0 492 492" width="492" height="492" id="arrow-left-fat" y="147"><path d="M464.344 207.418l.768.168H135.888l103.496-103.724c5.068-5.064 7.848-11.924 7.848-19.124 0-7.2-2.78-14.012-7.848-19.088L223.28 49.538c-5.064-5.064-11.812-7.864-19.008-7.864-7.2 0-13.952 2.78-19.016 7.844L7.844 226.914C2.76 231.998-.02 238.77 0 245.974c-.02 7.244 2.76 14.02 7.844 19.096l177.412 177.412c5.064 5.06 11.812 7.844 19.016 7.844 7.196 0 13.944-2.788 19.008-7.844l16.104-16.112c5.068-5.056 7.848-11.808 7.848-19.008 0-7.196-2.78-13.592-7.848-18.652L134.72 284.406h329.992c14.828 0 27.288-12.78 27.288-27.6v-22.788c0-14.82-12.828-26.6-27.656-26.6z"></path></svg><svg width="11" height="18" viewBox="0 0 11 18" id="arrow-right" y="639"><defs><path id="a" d="M274 1025l-2.12 2.12 6.87 6.88-6.87 6.88L274 1043l9-9z"></path></defs><use xlink:href="#a" transform="translate(-272 -1025)"></use></svg><svg viewBox="0 0 492.004 492.004" width="492.004" height="492.004" id="arrow-right-fat" y="657"><path d="M484.14 226.886L306.46 49.202c-5.072-5.072-11.832-7.856-19.04-7.856-7.216 0-13.972 2.788-19.044 7.856l-16.132 16.136c-5.068 5.064-7.86 11.828-7.86 19.04 0 7.208 2.792 14.2 7.86 19.264L355.9 207.526H26.58C11.732 207.526 0 219.15 0 234.002v22.812c0 14.852 11.732 27.648 26.58 27.648h330.496L252.248 388.926c-5.068 5.072-7.86 11.652-7.86 18.864 0 7.204 2.792 13.88 7.86 18.948l16.132 16.084c5.072 5.072 11.828 7.836 19.044 7.836 7.208 0 13.968-2.8 19.04-7.872l177.68-177.68c5.084-5.088 7.88-11.88 7.86-19.1.016-7.244-2.776-14.04-7.864-19.12z"></path></svg><svg width="64" height="64" viewBox="0 0 64 64" id="arrow-up" y="1150"><path d="M3.352 48.296l28.56-28.328 28.58 28.347c.397.394.917.59 1.436.59.52 0 1.04-.196 1.436-.59a2.003 2.003 0 0 0 0-2.849l-29.98-29.735c-.2-.2-.494-.375-.757-.475a2.052 2.052 0 0 0-2.166.456L.479 45.447a2.003 2.003 0 0 0 0 2.849 2.045 2.045 0 0 0 2.873 0z"></path></svg><svg width="68" height="76" viewBox="0 0 68 76" id="call--color" y="1214"><defs><path id="a" d="M679.43 1550.16l-7.6-2.53h-23.66l-7.6 2.53c-7.82 2.6-13.1 10.8-13.1 19.05h65.05c0-8.24-5.27-16.44-13.09-19.05z"></path><path id="b" d="M674.73 1518.86l-3.5-.5a25.09 25.09 0 0 1-14.19-7.1c-3.72 0-7.22 1.75-9.46 4.73l-2.3 3.08c.12 3.45.43 7.01.93 10.37.63 4.16 1.16 8.07 5.27 11.63l-.07.09-3.24 6.47a57.66 57.66 0 0 0 8.57 16.35l3.26 5.23 3.26-5.23a57.58 57.58 0 0 0 8.57-16.35l-3.24-6.47-.07-.09a14.57 14.57 0 0 0 4.76-8.5l.52-3.19c.5-3.4.82-7.03.93-10.52z"></path><path id="c" d="M674.73 1518.86l-3.5-.5a25.09 25.09 0 0 1-14.19-7.1c-3.72 0-7.22 1.75-9.46 4.73l-2.3 3.08c.12 3.45.43 7.01.93 10.37.63 4.16 1.16 8.07 5.27 11.63l-.07.09c-1.09 2.17 8.74 8.68 8.74 8.68l8.44-8.68-.07-.09a14.57 14.57 0 0 0 4.76-8.5l.52-3.19c.5-3.4.82-7.03.93-10.52z"></path><path id="d" d="M680.7 1517.17v9.32a2.96 2.96 0 0 1-2.96 2.95h-3.55l-.4-.06a92.98 92.98 0 0 0 .98-12.2h.01z"></path><path id="e" d="M661.32 1502.4a13.5 13.5 0 0 1 13.46 13.5c0 .75-.01 1.94-.05 2.96l-3.5-.5a25.09 25.09 0 0 1-14.19-7.1c-3.72 0-7.22 1.75-9.46 4.73l-2.3 3.08a91.43 91.43 0 0 1-.06-3.17 13.5 13.5 0 0 1 13.46-13.5H660z"></path><path id="f" d="M660 1532.4a2.96 2.96 0 1 1 0 5.91h-2.96a2.96 2.96 0 1 1 0-5.91z"></path><path id="g" d="M646.21 1529.44h-3.95a2.96 2.96 0 0 1-2.96-2.95v-9.32h5.92l.06 1.9c.12 3.45.43 7.01.93 10.37z"></path><path id="h" d="M641.03 1551.56l6.23-2.07a59.26 59.26 0 0 0 4.2 9.13l.01.01c1.21 2.13 2.57 4.2 4.05 6.18l1.82 2.92h-28.32c.58-7.32 5.46-13.98 12.01-16.17zm14.54-16.2c0-.82.66-1.48 1.47-1.48H660a1.48 1.48 0 0 1 0 2.95h-2.96c-.81 0-1.47-.66-1.47-1.47zm-2.7 1.47a4.44 4.44 0 0 0 4.17 2.96H660a4.43 4.43 0 1 0 0-8.87h-2.96a4.44 4.44 0 0 0-4.18 2.96h-4.31c-.74-2.46-1.59-9.7-1.77-14.35l1.99-2.65a10.4 10.4 0 0 1 7.69-4.12 26.74 26.74 0 0 0 14.57 7.06l2.17.31a90.98 90.98 0 0 1-.87 9.04c-.13.91-.24 1.5-.51 3.15-.78 4.7-4.29 8.94-8.91 10.1-1.9.47-3.91.47-5.82 0a11.99 11.99 0 0 1-7.24-5.59zm-9.13-4.43v-1.48h1.21l.32 1.89c.06.36.13.71.21 1.07h-.26c-.82 0-1.48-.66-1.48-1.48zm16.26-34.44c10.1 0 18.4 7.83 19.16 17.74h-2.9a14.97 14.97 0 0 0-14.94-14.79h-2.64a14.97 14.97 0 0 0-14.94 14.79h-2.9a19.2 19.2 0 0 1 19.16-17.74zm19.22 28.53c0 .81-.67 1.48-1.48 1.48h-2.26c.38-2.92.63-6.01.73-9.06v-.26h3zm-5.93-9.35v.02l-1.85-.27a23.75 23.75 0 0 1-13.35-6.67 1.48 1.48 0 0 0-1.05-.44c-3.97 0-7.77 1.81-10.28 4.87a12.02 12.02 0 0 1 11.92-10.78h2.64c6.63 0 11.99 5.42 11.98 12.03v1.24zm-31.03 10.83c-.81 0-1.48-.67-1.48-1.48v-7.84h3l.02.47v.01c.1 2.97.35 5.99.72 8.84h-2.26zm48.72 39.76h-28.32l1.82-2.92a59.25 59.25 0 0 0 4.08-6.23l.02-.04a59.21 59.21 0 0 0 4.16-9.05l6.23 2.07c6.55 2.2 11.43 8.85 12.01 16.17zm-39.44-23.52l6.23 6.24-4.69 4.95a56.32 56.32 0 0 1-3.3-7.67zm8.27 4.09l-2.9-2.89a14.96 14.96 0 0 0 5.5.12zm7.1 7.1l-5.01-5.01 6.31-6.68 2.02 4.02a56.31 56.31 0 0 1-3.31 7.68zm-6.91 11.01l-2-3.22a56.37 56.37 0 0 1-3.4-5.08l5.26-5.57 5.56 5.55a56.3 56.3 0 0 1-3.34 5c-.08.1.03-.06-2.08 3.32zm-32.52 4.28h65.04c.82 0 1.48-.66 1.48-1.48 0-9.13-5.93-17.73-14.1-20.45l-7.03-2.34-2.52-5.05a16.2 16.2 0 0 0 4.38-8.56l.32-1.89h2.69a4.44 4.44 0 0 0 4.43-4.43v-9.32A22.2 22.2 0 0 0 660 1495a22.16 22.16 0 0 0-22.17 22.17v9.32a4.44 4.44 0 0 0 2.95 4.18v1.73a4.44 4.44 0 0 0 4.44 4.43h1.3a16.04 16.04 0 0 0 3.13 4.55l-2.52 5.04-7.03 2.34c-8.17 2.72-14.1 11.32-14.1 20.45 0 .82.66 1.48 1.48 1.48z"></path></defs><use fill="#00bad8" xlink:href="#a" opacity=".4" transform="translate(-626 -1495)"></use><use fill="#fff" xlink:href="#b" transform="translate(-626 -1495)"></use><use fill="#fff" xlink:href="#c" transform="translate(-626 -1495)"></use><use fill="#00bad8" xlink:href="#d" opacity=".4" transform="translate(-626 -1495)"></use><use fill="#00bad8" xlink:href="#e" opacity=".4" transform="translate(-626 -1495)"></use><g opacity=".4" fill="#00bad8" transform="translate(-626 -1495)"><use xlink:href="#f" opacity=".4"></use><use xlink:href="#g" opacity=".4"></use></g><use fill="#00bad8" xlink:href="#h" transform="translate(-626 -1495)"></use></svg><svg viewBox="0 0 475.2 475.2" width="475.2" height="475.2" id="cancel" y="1290"><path d="M405.6 69.6C360.7 24.7 301.1 0 237.6 0s-123.1 24.7-168 69.6S0 174.1 0 237.6s24.7 123.1 69.6 168 104.5 69.6 168 69.6 123.1-24.7 168-69.6 69.6-104.5 69.6-168-24.7-123.1-69.6-168zm-19.1 316.9c-39.8 39.8-92.7 61.7-148.9 61.7s-109.1-21.9-148.9-61.7c-82.1-82.1-82.1-215.7 0-297.8C128.5 48.9 181.4 27 237.6 27s109.1 21.9 148.9 61.7c82.1 82.1 82.1 215.7 0 297.8z"></path><path d="M342.3 132.9c-5.3-5.3-13.8-5.3-19.1 0l-85.6 85.6-85.6-85.6c-5.3-5.3-13.8-5.3-19.1 0-5.3 5.3-5.3 13.8 0 19.1l85.6 85.6-85.6 85.6c-5.3 5.3-5.3 13.8 0 19.1 2.6 2.6 6.1 4 9.5 4s6.9-1.3 9.5-4l85.6-85.6 85.6 85.6c2.6 2.6 6.1 4 9.5 4 3.5 0 6.9-1.3 9.5-4 5.3-5.3 5.3-13.8 0-19.1l-85.4-85.6 85.6-85.6c5.3-5.3 5.3-13.8 0-19.1z"></path></svg><svg width="33" height="23" viewBox="0 0 33 23" id="card" y="1766"><defs><path id="a" d="M468 1286.6v2.3h-30v-2.3c0-.85.67-1.54 1.5-1.54h27c.83 0 1.5.69 1.5 1.54zm-30 5.38h30v11.54c0 .85-.67 1.54-1.5 1.54h-27c-.83 0-1.5-.69-1.5-1.54zm10.12 8.46c0-.84-.67-1.53-1.5-1.53-.82 0-1.5.69-1.5 1.53 0-.84-.67-1.53-1.5-1.53-.82 0-1.5.69-1.5 1.53 0 .85.68 1.54 1.5 1.54.83 0 1.5-.69 1.5-1.54 0 .85.68 1.54 1.5 1.54.83 0 1.5-.69 1.5-1.54z"></path></defs><use xlink:href="#a" transform="translate(-436 -1284)"></use></svg><svg viewBox="0 0 512 512" width="512" height="512" id="cart" y="1789"><path d="M485.7 198.5c-10.7-13.4-25.3-20.8-41.1-20.8h-36.1C405.1 85.1 338 11 256 11S106.9 85.1 103.5 177.7H67.4c-15.8 0-30.4 7.4-41.1 20.8-13.5 16.8-18.4 40.2-13.3 62.7L56.3 452c6.5 28.8 28.9 49 54.4 49h290.5c25.5 0 47.9-20.1 54.4-49L499 261.2c5.1-22.5.2-45.9-13.3-62.7zM256 51.8c59.6 0 108.4 55.8 111.6 125.9H144.4c3.2-70 52-125.9 111.6-125.9zm203.2 200.3L415.9 443c-2.2 9.8-8.5 17.2-14.6 17.2H110.7c-6.1 0-12.4-7.4-14.6-17.2L52.8 252.1c-2.3-10.1-3.7-33.6 14.6-33.6h377.2c19.7 0 16.9 23.5 14.6 33.6z"></path><path d="M154.7 259.1c-11.3 0-20.4 9.1-20.4 20.4V407c0 11.3 9.1 20.4 20.4 20.4 11.3 0 20.4-9.1 20.4-20.4V279.5c.1-11.2-9.1-20.4-20.4-20.4zm98.9 0c-11.3 0-20.4 9.1-20.4 20.4V407c0 11.3 9.1 20.4 20.4 20.4 11.3 0 20.4-9.1 20.4-20.4V279.5c0-11.2-9.2-20.4-20.4-20.4zm98.8 0c-11.3 0-20.4 9.1-20.4 20.4V407c0 11.3 9.1 20.4 20.4 20.4 11.3 0 20.4-9.1 20.4-20.4V279.5c0-11.2-9.1-20.4-20.4-20.4z"></path></svg><svg viewBox="0 0 26 26" width="26" height="26" id="checked" y="2301"><path d="M.3 14c-.2-.2-.3-.5-.3-.7s.1-.5.3-.7l1.4-1.4c.4-.4 1-.4 1.4 0l.1.1 5.5 5.9c.2.2.5.2.7 0L22.8 3.3h.1c.4-.4 1-.4 1.4 0l1.4 1.4c.4.4.4 1 0 1.4l-16 16.6c-.2.2-.4.3-.7.3-.3 0-.5-.1-.7-.3L.5 14.3.3 14z"></path></svg><svg viewBox="0 0 372.96 372.96" width="372.96" height="372.96" id="clock" y="2327"><path d="M186.48 0C83.49 0 0 83.49 0 186.48s83.49 186.48 186.48 186.48 186.48-83.49 186.48-186.48C372.828 83.545 289.415.132 186.48 0zm8 356.56v-32.8a8 8 0 0 0-16 0v32.8C90.759 352.372 20.588 282.201 16.4 194.48h32.8a8 8 0 0 0 0-16H16.4C20.588 90.759 90.759 20.588 178.48 16.4v32.8a8 8 0 0 0 16 0V16.4c87.721 4.188 157.892 74.359 162.08 162.08h-32.8a8 8 0 0 0 0 16h32.88c-4.191 87.75-74.408 157.932-162.16 162.08z"></path><path d="M270.88 260.88l-76.4-77.68v-80.72a8 8 0 0 0-16 0v84a8 8 0 0 0 2.32 5.6l78.64 80a8.005 8.005 0 1 0 11.44-11.2z"></path></svg><svg width="54.422" height="54.422" viewBox="0 0 139 139" id="close" y="2700"><path class="fil0" d="M7 0l63 63 62-63 7 7-63 63 63 62-7 7-62-63-63 63-7-7 63-62L0 7z"></path></svg><svg viewBox="0 0 471.2 471.2" width="471.2" height="471.2" id="download" y="2755"><path d="M457.7 230.15c-7.5 0-13.5 6-13.5 13.5v122.8c0 33.4-27.2 60.5-60.5 60.5H87.5c-33.4 0-60.5-27.2-60.5-60.5v-124.8c0-7.5-6-13.5-13.5-13.5s-13.5 6-13.5 13.5v124.8c0 48.3 39.3 87.5 87.5 87.5h296.2c48.3 0 87.5-39.3 87.5-87.5v-122.8c0-7.4-6-13.5-13.5-13.5z"></path><path d="M226.1 346.75c2.6 2.6 6.1 4 9.5 4s6.9-1.3 9.5-4l85.8-85.8c5.3-5.3 5.3-13.8 0-19.1-5.3-5.3-13.8-5.3-19.1 0l-62.7 62.8V30.75c0-7.5-6-13.5-13.5-13.5s-13.5 6-13.5 13.5v273.9l-62.8-62.8c-5.3-5.3-13.8-5.3-19.1 0-5.3 5.3-5.3 13.8 0 19.1l85.9 85.8z"></path></svg><svg viewBox="0 0 59 59" width="59" height="59" id="garbage" y="3227"><path d="M29.5 51a1 1 0 0 0 1-1V17a1 1 0 1 0-2 0v33a1 1 0 0 0 1 1zm-10 0a1 1 0 0 0 1-1V17a1 1 0 1 0-2 0v33a1 1 0 0 0 1 1zm20 0a1 1 0 0 0 1-1V17a1 1 0 1 0-2 0v33a1 1 0 0 0 1 1z"></path><path d="M52.5 6H38.456c-.11-1.25-.495-3.358-1.813-4.711C35.809.434 34.751 0 33.499 0H23.5c-1.252 0-2.31.434-3.144 1.289C19.038 2.642 18.653 4.75 18.543 6H6.5a1 1 0 1 0 0 2h2.041l1.915 46.021C10.493 55.743 11.565 59 15.364 59h28.272c3.799 0 4.871-3.257 4.907-4.958L50.459 8H52.5a1 1 0 1 0 0-2zM21.792 2.681C22.24 2.223 22.799 2 23.5 2h9.999c.701 0 1.26.223 1.708.681.805.823 1.128 2.271 1.24 3.319H20.553c.112-1.048.435-2.496 1.239-3.319zm24.752 51.298C46.538 54.288 46.4 57 43.636 57H15.364c-2.734 0-2.898-2.717-2.909-3.042L10.542 8h37.915l-1.913 45.979z"></path></svg><svg viewBox="0 0 471.701 471.701" width="471.701" height="471.701" id="heart" y="3286"><path d="M433.601 67.001c-24.7-24.7-57.4-38.2-92.3-38.2s-67.7 13.6-92.4 38.3l-12.9 12.9-13.1-13.1c-24.7-24.7-57.6-38.4-92.5-38.4-34.8 0-67.6 13.6-92.2 38.2-24.7 24.7-38.3 57.5-38.2 92.4 0 34.9 13.7 67.6 38.4 92.3l187.8 187.8c2.6 2.6 6.1 4 9.5 4 3.4 0 6.9-1.3 9.5-3.9l188.2-187.5c24.7-24.7 38.3-57.5 38.3-92.4.1-34.9-13.4-67.7-38.1-92.4zm-19.2 165.7l-178.7 178-178.3-178.3c-19.6-19.6-30.4-45.6-30.4-73.3s10.7-53.7 30.3-73.2c19.5-19.5 45.5-30.3 73.1-30.3 27.7 0 53.8 10.8 73.4 30.4l22.6 22.6c5.3 5.3 13.8 5.3 19.1 0l22.4-22.4c19.6-19.6 45.7-30.4 73.3-30.4 27.6 0 53.6 10.8 73.2 30.3 19.6 19.6 30.3 45.6 30.3 73.3.1 27.7-10.7 53.7-30.3 73.3z"></path></svg><svg viewBox="0 0 486.196 486.196" width="486.196" height="486.196" id="house" y="3758"><path d="M481.708 220.456l-228.8-204.6c-.4-.4-.8-.7-1.3-1-5-4.8-13-5-18.3-.3l-228.8 204.6c-5.6 5-6 13.5-1.1 19.1 2.7 3 6.4 4.5 10.1 4.5 3.2 0 6.4-1.1 9-3.4l41.2-36.9v238.6c0 18.7 15.2 34 34 34h72.2c17.6 0 31.9-14.3 31.9-31.9v-121.3c0-2.7 2.2-4.9 4.9-4.9h72.9c2.7 0 4.9 2.2 4.9 4.9v121.3c0 17.6 14.3 31.9 31.9 31.9h72.2c19 0 34-18.7 34-42.6v-228.7l41.2 36.9c2.6 2.3 5.8 3.4 9 3.4 3.7 0 7.4-1.5 10.1-4.5 4.8-5.6 4.3-14.1-1.2-19.1zm-86.2 66.7v145.1c0 9.7-4.8 15.6-7 15.6h-72.2c-2.7 0-4.9-2.2-4.9-4.9v-121.1c0-17.6-14.3-31.9-31.9-31.9h-72.9c-17.6 0-31.9 14.3-31.9 31.9v121.3c0 2.7-2.2 4.9-4.9 4.9h-72.2c-3.8 0-7-3.1-7-7v-262.8l151.8-135.6 153.1 136.9v107.6z"></path></svg><svg viewBox="0 0 330 330" width="330" height="330" id="info" y="4245"><path d="M165 0C74.019 0 0 74.02 0 165.001 0 255.982 74.019 330 165 330s165-74.018 165-164.999S255.981 0 165 0zm0 300c-74.44 0-135-60.56-135-134.999S90.56 30 165 30s135 60.562 135 135.001C300 239.44 239.439 300 165 300z"></path><path d="M164.998 70c-11.026 0-19.996 8.976-19.996 20.009 0 11.023 8.97 19.991 19.996 19.991 11.026 0 19.996-8.968 19.996-19.991 0-11.033-8.97-20.009-19.996-20.009zm.002 70c-8.284 0-15 6.716-15 15v90c0 8.284 6.716 15 15 15 8.284 0 15-6.716 15-15v-90c0-8.284-6.716-15-15-15z"></path></svg><svg viewBox="0 0 490.4 490.4" width="490.4" height="490.4" id="interface" y="4575"><path d="M245.2 490.4c135.2 0 245.2-110 245.2-245.2S380.4 0 245.2 0 0 110 0 245.2s110 245.2 245.2 245.2zm0-465.9c121.7 0 220.7 99 220.7 220.7s-99 220.7-220.7 220.7-220.7-99-220.7-220.7 99-220.7 220.7-220.7z"></path><path d="M206.5 349.6c2.3 2.3 5.4 3.6 8.7 3.6 3.2 0 6.3-1.3 8.6-3.6l147.5-146.7c2.3-2.3 3.6-5.4 3.6-8.7 0-3.2-1.3-6.4-3.6-8.7l-44.6-44.8c-4.8-4.8-12.5-4.8-17.3-.1l-94 93.5-34.2-34.4c-2.3-2.3-5.4-3.6-8.7-3.6-3.2 0-6.3 1.3-8.6 3.6l-44.8 44.6c-2.3 2.3-3.6 5.4-3.6 8.7 0 3.2 1.3 6.4 3.6 8.7l87.4 87.9zm-34-123.9l34.3 34.5c4.8 4.8 12.5 4.8 17.3.1l94-93.5 27.3 27.4-130.1 129.4-70.2-70.6 27.4-27.3z"></path></svg><svg viewBox="0 0 490.2 490.2" width="490.2" height="490.2" id="like" y="5066"><path d="M490.1 234.464c0-37.6-30.6-68.3-68.3-68.3H316.2v-76.1c0-32.2-9.4-55.4-28-69-29.4-21.6-69.8-9.3-71.5-8.7-5.1 1.6-8.6 6.3-8.6 11.7v85.5c0 67.3-78.1 90.2-81.4 91.2-1 .3-1.9.6-2.7 1.1-5.8-11.6-17.8-19.6-31.6-19.6H35.2c-19.4 0-35.2 15.8-35.2 35.2v207.9c0 19.4 15.8 35.2 35.2 35.2h33.1c6.8 0 12.3-5.5 12.3-12.3s-5.6-12.2-12.3-12.2H35.2c-5.9 0-10.7-4.8-10.7-10.7v-207.9c0-5.9 4.8-10.7 10.7-10.7h57.3c5.9 0 10.7 4.8 10.7 10.7v196.1c0 37.6 30.6 68.3 68.3 68.3h209.2c46.4 0 75.9-24.3 81.1-66.3l28.2-177c.1-.6.2-1.3.2-1.9v-2.2h-.1zm-24.5 1.1l-28.1 176.5c-3.7 30-22.8 45.3-56.8 45.3H171.5c-24.1 0-43.8-19.6-43.8-43.8v-189.1c1.8.4 3.7.3 5.6-.2 4.1-1.1 99.3-28.7 99.3-114.8v-75.6c10.4-1.6 28.2-2.5 41.1 6.9 11.9 8.8 18 25.3 18 49.3v88.4c0 6.8 5.5 12.3 12.3 12.3h117.9c24.1 0 43.8 19.6 43.8 43.8v1h-.1z"></path></svg><svg width="19" height="33" viewBox="0 0 19 33" id="login" y="5557"><path class="cls-1" d="M16.71 28.7h-5.16v-1.641h3.3a2.151 2.151 0 1 0 0-4.293h-3.29v-5.7a9.374 9.374 0 0 0 4.25-2.272 8.273 8.273 0 0 0 .01-12.255 9.721 9.721 0 0 0-13.1 0 8.272 8.272 0 0 0-.01 12.255 9.4 9.4 0 0 0 4.26 2.27L6.96 30.85a2.064 2.064 0 0 0 .68 1.518 2.111 2.111 0 0 0 .33.262 2.422 2.422 0 0 0 1.29.366h7.45a2.151 2.151 0 1 0 0-4.296zM5.96 11.76a4.174 4.174 0 0 1 0-6.184 4.905 4.905 0 0 1 6.61 0 4.174 4.174 0 0 1 0 6.184 4.9 4.9 0 0 1-6.61 0z"></path></svg><svg viewBox="0 0 451 451" width="451" height="451" id="magnifying-glass" y="5590"><path d="M447.05 428l-109.6-109.6c29.4-33.8 47.2-77.9 47.2-126.1C384.65 86.2 298.35 0 192.35 0 86.25 0 .05 86.3.05 192.3s86.3 192.3 192.3 192.3c48.2 0 92.3-17.8 126.1-47.2L428.05 447c2.6 2.6 6.1 4 9.5 4s6.9-1.3 9.5-4c5.2-5.2 5.2-13.8 0-19zM26.95 192.3c0-91.2 74.2-165.3 165.3-165.3 91.2 0 165.3 74.2 165.3 165.3s-74.1 165.4-165.3 165.4c-91.1 0-165.3-74.2-165.3-165.4z"></path></svg><svg viewBox="0 0 483.3 483.3" width="483.3" height="483.3" id="mail" y="6041"><path d="M424.3 57.75H59.1c-32.6 0-59.1 26.5-59.1 59.1v249.6c0 32.6 26.5 59.1 59.1 59.1h365.1c32.6 0 59.1-26.5 59.1-59.1v-249.5c.1-32.6-26.4-59.2-59-59.2zm32.1 308.7c0 17.7-14.4 32.1-32.1 32.1H59.1c-17.7 0-32.1-14.4-32.1-32.1v-249.5c0-17.7 14.4-32.1 32.1-32.1h365.1c17.7 0 32.1 14.4 32.1 32.1v249.5h.1z"></path><path d="M304.8 238.55l118.2-106c5.5-5 6-13.5 1-19.1-5-5.5-13.5-6-19.1-1l-163 146.3-31.8-28.4c-.1-.1-.2-.2-.2-.3-.7-.7-1.4-1.3-2.2-1.9L78.3 112.35c-5.6-5-14.1-4.5-19.1 1.1-5 5.6-4.5 14.1 1.1 19.1l119.6 106.9-119.1 111.5c-5.4 5.1-5.7 13.6-.6 19.1 2.7 2.8 6.3 4.3 9.9 4.3 3.3 0 6.6-1.2 9.2-3.6l120.9-113.1 32.8 29.3c2.6 2.3 5.8 3.4 9 3.4s6.5-1.2 9-3.5l33.7-30.2 120.2 114.2c2.6 2.5 6 3.7 9.3 3.7 3.6 0 7.1-1.4 9.8-4.2 5.1-5.4 4.9-14-.5-19.1l-118.7-112.7z"></path></svg><svg width="459" height="459" viewBox="0 0 459 459" id="menu" y="6525"><path d="M0 382.5h459v-51H0v51zM0 255h459v-51H0v51zM0 76.5v51h459v-51H0z"></path></svg><svg width="64" height="69" viewBox="0 0 64 69" id="note--color" y="6984"><defs><path id="a" d="M1031.35 1568.91v-65.29h44.8v65.3z"></path><path id="b" d="M1088.2 1549.34h-5.69v8.63a2.63 2.63 0 0 0 2.64 2.64h.42a2.63 2.63 0 0 0 2.63-2.64v-8.63z"></path><path id="c" d="M1082.51 1549.34v-34.95h5.7v34.95z"></path><path id="d" d="M1083.66 1514.4v-5.56h3.4v5.55z"></path><path id="e" d="M1074.8 1567.56h-42.1v-62.58h42.1zm1.35-65.3h-44.8c-.74 0-1.35.62-1.35 1.36v65.3c0 .74.6 1.35 1.35 1.35h44.8c.74 0 1.35-.6 1.35-1.36v-65.29c0-.74-.6-1.35-1.35-1.35z"></path><path id="f" d="M1039.99 1516.5h27.13a1.35 1.35 0 1 0 0-2.72H1040a1.35 1.35 0 1 0 0 2.71z"></path><path id="g" d="M1039.99 1527.06h27.52a1.35 1.35 0 1 0 0-2.71h-27.52a1.35 1.35 0 1 0 0 2.7z"></path><path id="h" d="M1039.99 1537.62h27.52a1.35 1.35 0 1 0 0-2.7h-27.52a1.35 1.35 0 1 0 0 2.7z"></path><path id="i" d="M1039.99 1548.33h27.52a1.35 1.35 0 1 0 0-2.7h-27.52a1.35 1.35 0 1 0 0 2.7z"></path><path id="j" d="M1039.99 1558.9h27.52a1.35 1.35 0 1 0 0-2.71h-27.52a1.35 1.35 0 1 0 0 2.7z"></path><path id="k" d="M1086.85 1557.97c0 .7-.58 1.28-1.28 1.28h-.42c-.71 0-1.28-.57-1.28-1.28v-7.27h2.98zm-1.84-47.78h.7v2.85h-.7zm-1.14 5.56h2.98v32.24h-2.98zm-2.71 42.22a4 4 0 0 0 2.84 3.82v1.9a1.35 1.35 0 1 0 2.71 0v-1.9a4 4 0 0 0 2.85-3.82v-38.37a2.44 2.44 0 0 1 1.49 2.24v9.76a1.35 1.35 0 1 0 2.7 0v-9.76a5.16 5.16 0 0 0-4.2-5.06v-2.39c0-.67-.5-1.23-1.14-1.33v-4.22c0-.75-.6-1.36-1.35-1.36h-3.4c-.75 0-1.36.61-1.36 1.36v4.22c-.65.1-1.14.66-1.14 1.33v43.58z"></path></defs><use fill="#00bad8" xlink:href="#a" opacity=".4" transform="translate(-1030 -1502)"></use><use fill="#00bad8" xlink:href="#b" opacity=".4" transform="translate(-1030 -1502)"></use><use fill="#00bad8" xlink:href="#c" opacity=".4" transform="translate(-1030 -1502)"></use><use fill="#00bad8" xlink:href="#d" opacity=".4" transform="translate(-1030 -1502)"></use><use fill="#00bad8" xlink:href="#e" transform="translate(-1030 -1502)"></use><use fill="#00bad8" xlink:href="#f" transform="translate(-1030 -1502)"></use><use fill="#00bad8" xlink:href="#g" transform="translate(-1030 -1502)"></use><use fill="#00bad8" xlink:href="#h" transform="translate(-1030 -1502)"></use><use fill="#00bad8" xlink:href="#i" transform="translate(-1030 -1502)"></use><use fill="#00bad8" xlink:href="#j" transform="translate(-1030 -1502)"></use><use fill="#00bad8" xlink:href="#k" transform="translate(-1030 -1502)"></use></svg><svg width="64" height="65" viewBox="0 0 64 65" id="phone--color" y="7053"><defs><path id="a" d="M491 1533.33a1.92 1.92 0 1 1-3.84 0c0-6.73-2.62-13.07-7.39-17.83a25.06 25.06 0 0 0-17.84-7.4 1.92 1.92 0 1 1 0-3.83c7.77 0 15.07 3.02 20.56 8.51a28.88 28.88 0 0 1 8.5 20.55z"></path><path id="b" d="M447.5 1525.22l-.05-.05-6.23-6.23-6.27-6.27 3.26-3.26 12.54 12.54-3.25 3.27zm30.63 36.75c-2.76 2.76-7.64 3.22-13.75 1.29-6.53-2.07-13.5-6.6-19.64-12.73-6.14-6.14-10.66-13.11-12.73-19.65-1.93-6.1-1.48-10.98 1.29-13.74l.34-.35 9.73 9.74-.89.89c-3.7 3.7.75 12.02 7.05 18.32 4.71 4.72 10.56 8.4 14.75 8.4 1.41 0 2.64-.42 3.57-1.36l.9-.89 9.72 9.74zm4.46-1.66l-12.54-12.54 3.26-3.26 12.54 12.54-3.26 3.26zm-6.56-18.51a3.84 3.84 0 0 0-5.43 0l-3.26 3.26a3.84 3.84 0 0 0-.97 3.78l-1.23 1.23c-.88.88-6.32-.47-12.9-7.04-6.57-6.58-7.92-12.02-7.04-12.9l1.23-1.23a3.83 3.83 0 0 0 3.78-.97l3.26-3.26a3.84 3.84 0 0 0 0-5.43l-12.54-12.54a3.81 3.81 0 0 0-5.43 0l-3.26 3.26a3.84 3.84 0 0 0-.97 3.78s-1.05 1.05-1.1 1.12c-3.47 3.86-4.12 9.93-1.82 17.19 2.25 7.1 7.11 14.63 13.67 21.2 6.57 6.56 14.1 11.41 21.2 13.67 2.86.9 5.53 1.35 7.95 1.35 3.98 0 7.3-1.2 9.67-3.58l.69-.69a3.86 3.86 0 0 0 3.78-.97l3.26-3.26a3.84 3.84 0 0 0 0-5.43z"></path><path id="c" d="M473.31 1544.51l12.54 12.54-3.26 3.26-12.54-12.54z"></path><path id="d" d="M481.26 1533.33a1.92 1.92 0 0 1-3.84 0c0-4.13-1.6-8.02-4.53-10.95a15.38 15.38 0 0 0-10.96-4.54 1.92 1.92 0 0 1 0-3.84 19.2 19.2 0 0 1 13.67 5.67 19.2 19.2 0 0 1 5.66 13.66z"></path><path id="e" d="M468.74 1551.9l9.73 9.73-.34.34c-2.76 2.76-7.64 3.22-13.75 1.29-6.53-2.07-13.5-6.6-19.64-12.73-6.14-6.14-10.66-13.11-12.73-19.65-1.93-6.1-1.48-10.98 1.29-13.74l.34-.35 9.73 9.74-.89.89c-3.7 3.7.75 12.02 7.05 18.32 4.71 4.72 10.56 8.4 14.75 8.4 1.41 0 2.64-.42 3.57-1.36z"></path><path id="f" d="M471.53 1533.33a1.92 1.92 0 1 1-3.84 0c0-1.55-.58-2.96-1.69-4.07a5.57 5.57 0 0 0-4.06-1.68 1.92 1.92 0 1 1 0-3.84c2.6 0 4.94.97 6.78 2.81a9.4 9.4 0 0 1 2.8 6.78z"></path><path id="g" d="M450.75 1521.95l-3.25 3.27-.05-.05-6.23-6.23-6.27-6.27 3.26-3.26z"></path></defs><use fill="#00bad8" xlink:href="#a" transform="translate(-427 -1504)"></use><use fill="#00bad8" xlink:href="#b" transform="translate(-427 -1504)"></use><use fill="#00bad8" xlink:href="#c" opacity=".4" transform="translate(-427 -1504)"></use><use fill="#00bad8" xlink:href="#d" transform="translate(-427 -1504)"></use><use fill="#00bad8" xlink:href="#e" opacity=".4" transform="translate(-427 -1504)"></use><use fill="#00bad8" xlink:href="#f" transform="translate(-427 -1504)"></use><use fill="#00bad8" xlink:href="#g" opacity=".4" transform="translate(-427 -1504)"></use></svg><svg viewBox="0 0 473.806 473.806" width="473.806" height="473.806" id="phone-call" y="7118"><path d="M374.456 293.506c-9.7-10.1-21.4-15.5-33.8-15.5-12.3 0-24.1 5.3-34.2 15.4l-31.6 31.5c-2.6-1.4-5.2-2.7-7.7-4-3.6-1.8-7-3.5-9.9-5.3-29.6-18.8-56.5-43.3-82.3-75-12.5-15.8-20.9-29.1-27-42.6 8.2-7.5 15.8-15.3 23.2-22.8 2.8-2.8 5.6-5.7 8.4-8.5 21-21 21-48.2 0-69.2l-27.3-27.3c-3.1-3.1-6.3-6.3-9.3-9.5-6-6.2-12.3-12.6-18.8-18.6-9.7-9.6-21.3-14.7-33.5-14.7s-24 5.1-34 14.7l-.2.2-34 34.3c-12.8 12.8-20.1 28.4-21.7 46.5-2.4 29.2 6.2 56.4 12.8 74.2 16.2 43.7 40.4 84.2 76.5 127.6 43.8 52.3 96.5 93.6 156.7 122.7 23 10.9 53.7 23.8 88 26 2.1.1 4.3.2 6.3.2 23.1 0 42.5-8.3 57.7-24.8.1-.2.3-.3.4-.5 5.2-6.3 11.2-12 17.5-18.1 4.3-4.1 8.7-8.4 13-12.9 9.9-10.3 15.1-22.3 15.1-34.6 0-12.4-5.3-24.3-15.4-34.3l-54.9-55.1zm35.8 105.3c-.1 0-.1.1 0 0-3.9 4.2-7.9 8-12.2 12.2-6.5 6.2-13.1 12.7-19.3 20-10.1 10.8-22 15.9-37.6 15.9-1.5 0-3.1 0-4.6-.1-29.7-1.9-57.3-13.5-78-23.4-56.6-27.4-106.3-66.3-147.6-115.6-34.1-41.1-56.9-79.1-72-119.9-9.3-24.9-12.7-44.3-11.2-62.6 1-11.7 5.5-21.4 13.8-29.7l34.1-34.1c4.9-4.6 10.1-7.1 15.2-7.1 6.3 0 11.4 3.8 14.6 7l.3.3c6.1 5.7 11.9 11.6 18 17.9 3.1 3.2 6.3 6.4 9.5 9.7l27.3 27.3c10.6 10.6 10.6 20.4 0 31-2.9 2.9-5.7 5.8-8.6 8.6-8.4 8.6-16.4 16.6-25.1 24.4-.2.2-.4.3-.5.5-8.6 8.6-7 17-5.2 22.7l.3.9c7.1 17.2 17.1 33.4 32.3 52.7l.1.1c27.6 34 56.7 60.5 88.8 80.8 4.1 2.6 8.3 4.7 12.3 6.7 3.6 1.8 7 3.5 9.9 5.3.4.2.8.5 1.2.7 3.4 1.7 6.6 2.5 9.9 2.5 8.3 0 13.5-5.2 15.2-6.9l34.2-34.2c3.4-3.4 8.8-7.5 15.1-7.5 6.2 0 11.3 3.9 14.4 7.3l.2.2 55.1 55.1c10.3 10.2 10.3 20.7.1 31.3zm-154.2-286.1c26.2 4.4 50 16.8 69 35.8s31.3 42.8 35.8 69c1.1 6.6 6.8 11.2 13.3 11.2.8 0 1.5-.1 2.3-.2 7.4-1.2 12.3-8.2 11.1-15.6-5.4-31.7-20.4-60.6-43.3-83.5s-51.8-37.9-83.5-43.3c-7.4-1.2-14.3 3.7-15.6 11s3.5 14.4 10.9 15.6zm217.2 96.3c-8.9-52.2-33.5-99.7-71.3-137.5s-85.3-62.4-137.5-71.3c-7.3-1.3-14.2 3.7-15.5 11-1.2 7.4 3.7 14.3 11.1 15.6 46.6 7.9 89.1 30 122.9 63.7 33.8 33.8 55.8 76.3 63.7 122.9 1.1 6.6 6.8 11.2 13.3 11.2.8 0 1.5-.1 2.3-.2 7.3-1.1 12.3-8.1 11-15.4z"></path></svg><svg viewBox="0 0 477 477" width="477" height="477" id="placeholder" y="7592"><path d="M238.4 0C133 0 47.2 85.8 47.2 191.2c0 12 1.1 24.1 3.4 35.9.1.7.5 2.8 1.3 6.4 2.9 12.9 7.2 25.6 12.8 37.7 20.6 48.5 65.9 123 165.3 202.8 2.5 2 5.5 3 8.5 3s6-1 8.5-3c99.3-79.8 144.7-154.3 165.3-202.8 5.6-12.1 9.9-24.7 12.8-37.7.8-3.6 1.2-5.7 1.3-6.4 2.2-11.8 3.4-23.9 3.4-35.9C429.6 85.8 343.8 0 238.4 0zm161.2 222.4c0 .2-.1.4-.1.6-.1.5-.4 2-.9 4.3v.2c-2.5 11.2-6.2 22.1-11.1 32.6-.1.1-.1.3-.2.4-18.7 44.3-59.7 111.9-148.9 185.6-89.2-73.7-130.2-141.3-148.9-185.6-.1-.1-.1-.3-.2-.4-4.8-10.4-8.5-21.4-11.1-32.6v-.2c-.6-2.3-.8-3.8-.9-4.3 0-.2-.1-.4-.1-.7-2-10.3-3-20.7-3-31.2 0-90.5 73.7-164.2 164.2-164.2s164.2 73.7 164.2 164.2c0 10.6-1 21.1-3 31.3z"></path><path d="M238.4 71.9c-66.9 0-121.4 54.5-121.4 121.4s54.5 121.4 121.4 121.4 121.4-54.5 121.4-121.4S305.3 71.9 238.4 71.9zm0 215.8c-52.1 0-94.4-42.4-94.4-94.4s42.4-94.4 94.4-94.4 94.4 42.4 94.4 94.4-42.3 94.4-94.4 94.4z"></path></svg><svg viewBox="0 0 42 42" width="42" height="42" id="plus" y="8069"><path d="M42 19H23V0h-4v19H0v4h19v19h4V23h19z"></path></svg><svg width="80" height="60" viewBox="0 0 80 60" id="ruller--color" y="8111"><defs><path id="a" d="M849.41 1541.3c-.77 0-1.6 0-2.31-.08.75 0 1.6.08 2.31.08 14.15 0 25.72-8.24 25.72-18.35 0-10.11-11.5-18.34-25.72-18.34-14.21 0-25.72 8.23-25.72 18.34.06 3 1.06 5.9 2.86 8.28l-2.78-3.8v15.3c0 8.65 8.58 16.2 20.4 17.95l1.85.28h54.37v-19.66z"></path><path id="b" d="M859.83 1522.95c0-4.1-4.66-7.44-10.42-7.44-5.75 0-10.42 3.33-10.42 7.44s4.67 7.45 10.42 7.45c5.76 0 10.42-3.34 10.42-7.45z"></path><path id="c" d="M849.41 1528.8c4.82 0 8.81-2.67 8.81-5.83 0-3.17-4.03-5.84-8.8-5.84-4.78 0-8.82 2.67-8.82 5.84 0 3.16 4.04 5.83 8.81 5.83z"></path><path id="d" d="M872.16 1531.4a22.68 22.68 0 0 1-8.65 6.84l-8.44 3.06h19.98v-13.88z"></path><path id="e" d="M849.41 1517.13c4.82 0 8.81 2.67 8.81 5.84 0 3.16-4.03 5.83-8.8 5.83-4.78 0-8.82-2.67-8.82-5.83 0-3.17 4.04-5.85 8.81-5.85zm0 14.89c6.63 0 12.03-4.07 12.03-9.05 0-4.99-5.39-9.05-12.03-9.05s-12.02 4.06-12.02 9.05c0 4.98 5.4 9.05 12.02 9.05z"></path><path id="f" d="M898.78 1559.45h-3.21v-8.14a1.6 1.6 0 0 0-3.22 0v8.15h-6.43v-4.42a1.6 1.6 0 0 0-3.21 0v4.42h-6.43v-4.42a1.6 1.6 0 0 0-3.22 0v4.42h-6.43v-8.15a1.6 1.6 0 0 0-3.22 0v8.15h-6.15v-4.42a1.6 1.6 0 0 0-3.22 0v4.42h-6.43v-4.42a1.6 1.6 0 0 0-3.21 0v4.04c-10.86-1.61-19.02-8.33-19.02-16.37v-10.37c4.6 6.29 13.65 10.56 24.11 10.56h49.3zm-25.25-27.1v7.34h-9.33a24.24 24.24 0 0 0 9.25-7.35zm-24.12-26.12c13.27 0 24.12 7.5 24.12 16.74 0 9.23-10.8 16.73-24.12 16.73-13.33 0-24.11-7.5-24.11-16.73s10.86-16.74 24.11-16.74zm50.98 33.46h-23.73v-16.74c0-11-12.23-19.95-27.33-19.95-15.1 0-27.33 8.95-27.33 19.95v19.78c0 10.13 10.37 18.49 23.73 19.76h.27c1.11.1 2.24.17 3.38.17h51.01c.89 0 1.61-.72 1.61-1.6v-19.76c0-.9-.72-1.61-1.6-1.61z"></path></defs><use fill="#00bad8" xlink:href="#a" opacity=".4" transform="translate(-822 -1503)"></use><use fill="#fff" xlink:href="#b" transform="translate(-822 -1503)"></use><use fill="#fff" xlink:href="#c" transform="translate(-822 -1503)"></use><use fill="#00bad8" xlink:href="#d" transform="translate(-822 -1503)"></use><use fill="#00bad8" xlink:href="#e" transform="translate(-822 -1503)"></use><use fill="#00bad8" xlink:href="#f" transform="translate(-822 -1503)"></use></svg><svg width="24" height="24" viewBox="0 0 24 24" id="search" y="8171"><defs><path id="a" d="M1490.67 62.67a6 6 0 1 1-.02-11.99 6 6 0 0 1 .02 11.99zm8 0h-1.06l-.37-.36a8.67 8.67 0 1 0-.93.93l.36.37v1.06l6.66 6.65 1.99-1.99z"></path></defs><use xlink:href="#a" transform="translate(-1482 -48)"></use></svg><svg viewBox="0 0 481.6 481.6" width="481.6" height="481.6" id="share" y="8195"><path d="M381.6 309.4c-27.7 0-52.4 13.2-68.2 33.6l-132.3-73.9c3.1-8.9 4.8-18.5 4.8-28.4 0-10-1.7-19.5-4.9-28.5l132.2-73.8c15.7 20.5 40.5 33.8 68.3 33.8 47.4 0 86.1-38.6 86.1-86.1S429 0 381.5 0s-86.1 38.6-86.1 86.1c0 10 1.7 19.6 4.9 28.5l-132.1 73.8c-15.7-20.6-40.5-33.8-68.3-33.8-47.4 0-86.1 38.6-86.1 86.1s38.7 86.1 86.2 86.1c27.8 0 52.6-13.3 68.4-33.9l132.2 73.9c-3.2 9-5 18.7-5 28.7 0 47.4 38.6 86.1 86.1 86.1s86.1-38.6 86.1-86.1-38.7-86.1-86.2-86.1zm0-282.3c32.6 0 59.1 26.5 59.1 59.1s-26.5 59.1-59.1 59.1-59.1-26.5-59.1-59.1 26.6-59.1 59.1-59.1zM100 299.8c-32.6 0-59.1-26.5-59.1-59.1s26.5-59.1 59.1-59.1 59.1 26.5 59.1 59.1-26.6 59.1-59.1 59.1zm281.6 154.7c-32.6 0-59.1-26.5-59.1-59.1s26.5-59.1 59.1-59.1 59.1 26.5 59.1 59.1-26.5 59.1-59.1 59.1z"></path></svg><svg width="56" height="68" viewBox="0 0 56 68" id="shield--color" y="8677"><defs><path id="a" d="M1486.45 1511.3v21.67a37.27 37.27 0 0 1-26.56 35.7 37.27 37.27 0 0 1-26.56-35.7v-21.67c4.4 0 7.97-3.57 7.97-7.97h37.18c0 4.4 3.57 7.97 7.97 7.97z"></path><path id="b" d="M1474.28 1508.64h-28.78a13.35 13.35 0 0 1-6.86 6.86v17.47c0 13.69 8.48 25.6 21.25 30.11a31.75 31.75 0 0 0 21.25-30.1v-17.48a13.35 13.35 0 0 1-6.86-6.86z"></path><path id="c" d="M1459.9 1522.72a10.64 10.64 0 0 1 0 21.25 10.64 10.64 0 0 1 0-21.25z"></path><path id="d" d="M1485.13 1532.97a35.72 35.72 0 0 1-25.24 34.31 35.91 35.91 0 0 1-25.23-34.3v-20.45a9.32 9.32 0 0 0 7.87-7.87h34.72a9.32 9.32 0 0 0 7.88 7.87zm1.32-23a6.65 6.65 0 0 1-6.64-6.64c0-.74-.6-1.33-1.33-1.33h-37.18c-.74 0-1.33.6-1.33 1.33a6.65 6.65 0 0 1-6.64 6.64c-.74 0-1.33.6-1.33 1.33v21.67c0 16.9 11.01 32.03 27.5 36.97a1.33 1.33 0 0 0 .77 0 38.58 38.58 0 0 0 27.51-36.97v-21.67c0-.74-.6-1.33-1.33-1.33z"></path><path id="e" d="M1475.5 1508.1c-.21-.48-.7-.79-1.22-.79h-9.08a1.33 1.33 0 0 0 0 2.66h8.24a14.6 14.6 0 0 0 6.37 6.37v16.63c0 13-7.8 24.21-19.92 28.7a30.25 30.25 0 0 1-19.92-28.7v-16.63a14.6 14.6 0 0 0 6.37-6.37h19.78a1.33 1.33 0 0 0 0-2.66h-20.62c-.53 0-1 .31-1.22.8a11.96 11.96 0 0 1-6.17 6.17c-.49.22-.8.7-.8 1.22v17.47c0 14.24 8.8 26.65 22.14 31.37a1.33 1.33 0 0 0 .88 0 33.06 33.06 0 0 0 22.14-31.37v-17.47c0-.53-.31-1-.8-1.22a11.96 11.96 0 0 1-6.17-6.17z"></path><path id="f" d="M1469.19 1533.34a9.3 9.3 0 0 1-18.6 0 9.3 9.3 0 0 1 18.6 0zm-21.25 0c0 6.6 5.36 11.96 11.95 11.96a11.97 11.97 0 0 0 0-23.9c-6.59 0-11.95 5.35-11.95 11.94z"></path><path id="g" d="M1456.85 1533.73a1.33 1.33 0 0 0-1.88 1.88l2.65 2.66a1.33 1.33 0 0 0 1.88 0l6.64-6.64a1.33 1.33 0 0 0-1.88-1.88l-5.7 5.7z"></path></defs><use fill="#00bad8" xlink:href="#a" opacity=".4" transform="translate(-1432 -1502)"></use><use fill="#fff" xlink:href="#b" opacity=".4" transform="translate(-1432 -1502)"></use><use fill="#00bad8" xlink:href="#c" opacity=".4" transform="translate(-1432 -1502)"></use><use fill="#00bad8" xlink:href="#d" transform="translate(-1432 -1502)"></use><use fill="#00bad8" xlink:href="#e" transform="translate(-1432 -1502)"></use><use fill="#00bad8" xlink:href="#f" transform="translate(-1432 -1502)"></use><use fill="#00bad8" xlink:href="#g" transform="translate(-1432 -1502)"></use></svg><svg width="43" height="43" viewBox="0 0 43 43" id="smile-good" y="8745"><defs><path id="a" d="M928 1166c0 5.34-2.08 10.36-5.86 14.14A19.87 19.87 0 0 1 908 1186a19.87 19.87 0 0 1-14.14-5.86A19.87 19.87 0 0 1 888 1166c0-5.34 2.08-10.37 5.86-14.14A19.87 19.87 0 0 1 908 1146c5.34 0 10.36 2.08 14.14 5.86A19.87 19.87 0 0 1 928 1166zm-2.47 0c0-9.66-7.87-17.53-17.53-17.53a17.55 17.55 0 0 0-17.53 17.53c0 9.66 7.87 17.52 17.53 17.52s17.53-7.86 17.53-17.52zm-14.15-3.8a2.89 2.89 0 1 1 5.78.01 2.89 2.89 0 0 1-5.78 0zm-12.54 0a2.89 2.89 0 1 1 5.78.01 2.89 2.89 0 0 1-5.78 0zm17.87 7l2.32.86a11.8 11.8 0 0 1-11.03 7.7c-4.9 0-9.33-3.1-11.03-7.7l2.32-.86a9.32 9.32 0 0 0 8.71 6.08 9.32 9.32 0 0 0 8.71-6.08z"></path></defs><use xlink:href="#a" transform="translate(-886 -1144)"></use></svg><svg viewBox="0 0 512 512" width="512" height="512" id="soc-facebook" y="8788"><path d="M134.941 272.691h56.123v231.051a8.256 8.256 0 0 0 8.258 8.258h95.159a8.256 8.256 0 0 0 8.258-8.258V273.78h64.519a8.26 8.26 0 0 0 8.204-7.315l9.799-85.061a8.259 8.259 0 0 0-8.202-9.203h-74.316V118.88c0-16.073 8.654-24.224 25.726-24.224h48.59a8.258 8.258 0 0 0 8.258-8.258V8.319a8.256 8.256 0 0 0-8.258-8.258h-66.965A65.863 65.863 0 0 0 307.027 0c-11.619 0-52.006 2.281-83.909 31.63-35.348 32.524-30.434 71.465-29.26 78.217v62.352H134.94a8.256 8.256 0 0 0-8.258 8.258v83.975a8.26 8.26 0 0 0 8.259 8.259z"></path></svg><svg width="96.669" height="96.669" viewBox="0 0 96.669 96.669" id="soc-google" y="9300"><path d="M50.91 55.189l-4.533-3.522c-1.38-1.144-3.27-2.656-3.27-5.422 0-2.778 1.889-4.544 3.527-6.18 5.279-4.157 10.557-8.581 10.557-17.903 0-9.586-6.031-14.629-8.923-17.022h7.795L64.244 0H39.459C32.658 0 22.856 1.608 15.68 7.533c-5.408 4.666-8.046 11.099-8.046 16.892 0 9.831 7.548 19.798 20.88 19.798 1.259 0 2.636-.124 4.022-.252-.623 1.515-1.252 2.777-1.252 4.917 0 3.905 2.006 6.299 3.774 8.567-5.663.39-16.237 1.018-24.033 5.809-7.424 4.415-9.684 10.84-9.684 15.377 0 9.334 8.8 18.028 27.045 18.028 21.636 0 33.089-11.971 33.089-23.823.002-8.707-5.028-12.992-10.565-17.657zM34.431 40.691c-10.824 0-15.727-13.992-15.727-22.434 0-3.288.623-6.682 2.763-9.333C23.486 6.4 27 4.762 30.281 4.762c10.434 0 15.846 14.118 15.846 23.197 0 2.271-.251 6.296-3.144 9.207-2.023 2.021-5.409 3.525-8.552 3.525zm.124 50.696c-13.46 0-22.139-6.438-22.139-15.392 0-8.949 8.048-11.978 10.816-12.979 5.281-1.777 12.076-2.024 13.21-2.024 1.258 0 1.887 0 2.889.126 9.568 6.81 13.721 10.203 13.721 16.65.001 7.805-6.417 13.619-18.497 13.619zm48.124-50.888V27.894h-6.224v12.605H63.869v6.294h12.586v12.684h6.224V46.793h12.649v-6.294z"></path></svg><svg width="430.117" height="430.117" viewBox="0 0 430.117 430.117" id="soc-in" y="9397"><path d="M430.117 261.543V420.56h-92.188V272.193c0-37.271-13.334-62.707-46.703-62.707-25.473 0-40.632 17.142-47.301 33.724-2.432 5.928-3.058 14.179-3.058 22.477V420.56h-92.219s1.242-251.285 0-277.32h92.21v39.309c-.187.294-.43.611-.606.896h.606v-.896c12.251-18.869 34.13-45.824 83.102-45.824 60.673-.001 106.157 39.636 106.157 124.818zM52.183 9.558C20.635 9.558 0 30.251 0 57.463c0 26.619 20.038 47.94 50.959 47.94h.616c32.159 0 52.159-21.317 52.159-47.94-.606-27.212-20-47.905-51.551-47.905zM5.477 420.56h92.184V143.24H5.477v277.32z"></path></svg><svg width="438.536" height="438.536" viewBox="0 0 438.536 438.536" id="soc-instagram" y="9828"><path d="M421.981 16.562C410.941 5.519 397.711 0 382.298 0H56.248C40.83 0 27.604 5.521 16.561 16.562 5.52 27.6.001 40.828.001 56.243V382.29c0 15.413 5.518 28.644 16.56 39.683 11.043 11.04 24.272 16.563 39.687 16.563h326.046c15.41 0 28.644-5.523 39.684-16.563 11.043-11.039 16.557-24.27 16.557-39.683V56.243c-.001-15.418-5.514-28.639-16.554-39.681zM157.462 158.025c17.224-16.652 37.924-24.982 62.097-24.982 24.36 0 45.153 8.33 62.381 24.982 17.228 16.655 25.837 36.785 25.837 60.386 0 23.598-8.609 43.729-25.837 60.379-17.228 16.659-38.014 24.988-62.381 24.988-24.172 0-44.87-8.336-62.097-24.988-17.228-16.652-25.841-36.781-25.841-60.379 0-23.601 8.613-43.73 25.841-60.386zm231.403 212.564c0 4.945-1.718 9.083-5.141 12.416-3.433 3.33-7.519 4.996-12.282 4.996h-305.2c-4.948 0-9.091-1.666-12.419-4.996-3.333-3.326-4.998-7.471-4.998-12.416V185.575H89.08c-3.805 11.993-5.708 24.462-5.708 37.402 0 36.553 13.322 67.715 39.969 93.511 26.65 25.786 58.721 38.685 96.217 38.685 24.744 0 47.583-5.903 68.527-17.703 20.937-11.807 37.486-27.839 49.676-48.112 12.183-20.272 18.274-42.4 18.274-66.38 0-12.94-1.91-25.406-5.715-37.402h38.547V370.59h-.002zm0-254.963c0 5.52-1.903 10.184-5.716 13.99-3.805 3.809-8.466 5.711-13.989 5.711h-49.676c-5.517 0-10.185-1.903-13.99-5.711-3.806-3.806-5.708-8.47-5.708-13.99V68.522c0-5.33 1.902-9.945 5.708-13.848 3.806-3.901 8.474-5.854 13.99-5.854h49.676c5.523 0 10.185 1.952 13.989 5.854 3.812 3.903 5.716 8.518 5.716 13.848v47.104z"></path></svg><svg width="95.481" height="95.481" viewBox="0 0 95.481 95.481" id="soc-ok" y="10267"><path d="M43.041 67.254c-7.402-.772-14.076-2.595-19.79-7.064-.709-.556-1.441-1.092-2.088-1.713-2.501-2.402-2.753-5.153-.774-7.988 1.693-2.426 4.535-3.075 7.489-1.682.572.27 1.117.607 1.639.969 10.649 7.317 25.278 7.519 35.967.329 1.059-.812 2.191-1.474 3.503-1.812 2.551-.655 4.93.282 6.299 2.514 1.564 2.549 1.544 5.037-.383 7.016-2.956 3.034-6.511 5.229-10.461 6.761-3.735 1.448-7.826 2.177-11.875 2.661.611.665.899.992 1.281 1.376 5.498 5.524 11.02 11.025 16.5 16.566 1.867 1.888 2.257 4.229 1.229 6.425-1.124 2.4-3.64 3.979-6.107 3.81-1.563-.108-2.782-.886-3.865-1.977-4.149-4.175-8.376-8.273-12.441-12.527-1.183-1.237-1.752-1.003-2.796.071-4.174 4.297-8.416 8.528-12.683 12.735-1.916 1.889-4.196 2.229-6.418 1.15-2.362-1.145-3.865-3.556-3.749-5.979.08-1.639.886-2.891 2.011-4.014 5.441-5.433 10.867-10.88 16.295-16.322.359-.362.694-.746 1.217-1.305z"></path><path d="M47.55 48.329c-13.205-.045-24.033-10.992-23.956-24.218C23.67 10.739 34.505-.037 47.84 0c13.362.036 24.087 10.967 24.02 24.478-.068 13.199-10.971 23.897-24.31 23.851zm12.001-24.186c-.023-6.567-5.253-11.795-11.807-11.801-6.609-.007-11.886 5.316-11.835 11.943.049 6.542 5.324 11.733 11.896 11.709 6.552-.023 11.768-5.285 11.746-11.851z"></path></svg><svg viewBox="0 0 410.155 410.155" width="410.155" height="410.155" id="soc-twitter" y="10363"><path d="M403.632 74.18a162.414 162.414 0 0 1-28.28 9.537 88.177 88.177 0 0 0 23.275-37.067c1.295-4.051-3.105-7.554-6.763-5.385a163.188 163.188 0 0 1-43.235 17.862 11.02 11.02 0 0 1-2.702.336c-2.766 0-5.455-1.027-7.57-2.891-16.156-14.239-36.935-22.081-58.508-22.081-9.335 0-18.76 1.455-28.014 4.325-28.672 8.893-50.795 32.544-57.736 61.724-2.604 10.945-3.309 21.9-2.097 32.56a3.166 3.166 0 0 1-.797 2.481 3.278 3.278 0 0 1-2.753 1.091c-62.762-5.831-119.358-36.068-159.363-85.14-2.04-2.503-5.952-2.196-7.578.593-7.834 13.44-11.974 28.812-11.974 44.454 0 23.972 9.631 46.563 26.36 63.032a79.24 79.24 0 0 1-20.169-7.808c-3.06-1.7-6.825.485-6.868 3.985-.438 35.612 20.412 67.3 51.646 81.569a79.567 79.567 0 0 1-16.786-1.399c-3.446-.658-6.341 2.611-5.271 5.952 10.138 31.651 37.39 54.981 70.002 60.278-27.066 18.169-58.585 27.753-91.39 27.753l-10.227-.006c-3.151 0-5.816 2.054-6.619 5.106-.791 3.006.666 6.177 3.353 7.74 36.966 21.513 79.131 32.883 121.955 32.883 37.485 0 72.549-7.439 104.219-22.109 29.033-13.449 54.689-32.674 76.255-57.141 20.09-22.792 35.8-49.103 46.692-78.201 10.383-27.737 15.871-57.333 15.871-85.589v-1.346c-.001-4.537 2.051-8.806 5.631-11.712a174.776 174.776 0 0 0 35.16-38.591c2.573-3.849-1.485-8.673-5.719-6.795z"></path></svg><svg viewBox="0 0 512 512" width="512" height="512" id="soc-vk" y="10774"><path d="M440.649 295.361c16.984 16.582 34.909 32.182 50.142 50.436 6.729 8.112 13.099 16.482 17.973 25.896 6.906 13.382.651 28.108-11.348 28.907l-74.59-.034c-19.238 1.596-34.585-6.148-47.489-19.302-10.327-10.519-19.891-21.714-29.821-32.588-4.071-4.444-8.332-8.626-13.422-11.932-10.182-6.609-19.021-4.586-24.84 6.034-5.926 10.802-7.271 22.762-7.853 34.8-.799 17.564-6.108 22.182-23.751 22.986-37.705 1.778-73.489-3.926-106.732-22.947-29.308-16.768-52.034-40.441-71.816-67.24-38.513-52.183-68.008-109.525-94.516-168.473-5.967-13.281-1.603-20.41 13.051-20.663 24.333-.473 48.663-.439 73.025-.034 9.89.145 16.437 5.817 20.256 15.16 13.165 32.371 29.274 63.169 49.494 91.716 5.385 7.6 10.876 15.201 18.694 20.55 8.65 5.923 15.236 3.96 19.305-5.676 2.582-6.11 3.713-12.691 4.295-19.234 1.928-22.513 2.182-44.988-1.199-67.422-2.076-14.001-9.962-23.065-23.933-25.714-7.129-1.351-6.068-4.004-2.616-8.073 5.995-7.018 11.634-11.387 22.875-11.387h84.298c13.271 2.619 16.218 8.581 18.035 21.934l.072 93.637c-.145 5.169 2.582 20.51 11.893 23.931 7.452 2.436 12.364-3.526 16.836-8.251 20.183-21.421 34.588-46.737 47.457-72.951 5.711-11.527 10.622-23.497 15.381-35.458 3.526-8.875 9.059-13.242 19.056-13.049l81.132.072c2.406 0 4.84.035 7.17.434 13.671 2.33 17.418 8.211 13.195 21.561-6.653 20.945-19.598 38.4-32.255 55.935-13.53 18.721-28.001 36.802-41.418 55.634-12.328 17.2-11.349 25.868 3.964 40.805z"></path></svg><svg width="64" height="64" viewBox="0 0 64 64" id="soc-youtube" y="11286"><path d="M37.635 41.44c-.542 0-1.088.257-1.635.79v10.999c.547.544 1.093.806 1.635.806.941 0 1.423-.806 1.423-2.434v-7.698c.001-1.632-.482-2.463-1.423-2.463zm11.966 0c-1.093 0-1.642.831-1.642 2.502v1.671h3.274v-1.671c.001-1.671-.546-2.502-1.632-2.502z"></path><path d="M56.396 29.049c-2.055-2.139-4.357-2.148-5.414-2.271-7.556-.54-18.889-.54-18.889-.54h-.025s-11.333 0-18.896.54c-1.054.123-3.352.133-5.409 2.271-1.618 1.632-2.147 5.327-2.147 5.327s-.536 4.343-.536 8.685v4.073c0 4.341.536 8.686.536 8.686s.529 3.695 2.147 5.321c2.057 2.139 4.753 2.072 5.952 2.295 4.324.413 18.365.538 18.365.538s11.347-.016 18.903-.562c1.057-.121 3.359-.133 5.414-2.271 1.619-1.626 2.147-5.321 2.147-5.321s.536-4.345.536-8.686v-4.073c0-4.342-.536-8.685-.536-8.685s-.529-3.695-2.148-5.327zM16.979 56.755h-3.642V35.953H9.486v-3.406H20.9v3.406h-3.92v20.802zm12.912 0h-3.278v-1.969c-1.299 1.489-2.54 2.221-3.742 2.221-1.054 0-1.781-.432-2.112-1.346-.178-.546-.286-1.409-.286-2.683V38.717h3.275v13.28c0 .765 0 1.164.024 1.27.083.507.336.769.771.769.658 0 1.341-.507 2.069-1.533V38.717h3.278v18.038zm12.44-5.409c0 1.663-.11 2.866-.331 3.631-.438 1.344-1.313 2.03-2.613 2.03-1.168 0-2.294-.647-3.387-1.999v1.747h-3.277V32.547H36v7.905c1.056-1.299 2.179-1.956 3.387-1.956 1.299 0 2.174.688 2.613 2.036.221.729.331 1.918.331 3.628v7.186zM54.51 48.33h-6.55v3.199c0 1.671.549 2.506 1.673 2.506.806 0 1.275-.44 1.463-1.311.029-.178.073-.908.073-2.219h3.341v.479c0 1.051-.043 1.776-.071 2.106a4.606 4.606 0 0 1-.766 1.955c-.906 1.312-2.25 1.96-3.963 1.96-1.711 0-3.014-.618-3.96-1.853-.696-.902-1.051-2.326-1.051-4.241v-6.319c0-1.927.318-3.333 1.012-4.249.946-1.234 2.249-1.849 3.922-1.849 1.643 0 2.947.614 3.863 1.849.685.916 1.015 2.322 1.015 4.249v3.738zM23.436 24.434v-9.908L27.848-.026h-3.71l-2.503 9.605L19.03-.026h-3.863c.777 2.268 1.581 4.544 2.356 6.816 1.174 3.411 1.91 5.982 2.244 7.735v9.908h3.669zm8.611.251c1.656 0 2.942-.624 3.858-1.864.692-.91 1.029-2.346 1.029-4.287v-6.387c0-1.945-.337-3.367-1.029-4.289-.917-1.25-2.202-1.87-3.858-1.87-1.654 0-2.943.62-3.854 1.87-.707.922-1.034 2.344-1.034 4.289v6.387c0 1.941.327 3.377 1.034 4.287.911 1.24 2.2 1.864 3.854 1.864zm-1.581-13.199c0-1.686.514-2.529 1.581-2.529 1.062 0 1.573.844 1.573 2.529v7.669c0 1.687-.511 2.53-1.573 2.53-1.067 0-1.581-.844-1.581-2.53v-7.669zm18.522 12.948V6.203H45.68v13.935c-.733 1.034-1.427 1.548-2.088 1.548-.445 0-.708-.265-.777-.773-.042-.109-.042-.51-.042-1.285V6.203h-3.299v14.418c0 1.289.108 2.161.293 2.711.332.92 1.068 1.353 2.133 1.353 1.204 0 2.46-.732 3.781-2.24v1.989h3.307z"></path></svg><svg viewBox="0 0 490.727 490.727" width="490.727" height="490.727" id="star" y="11350"><path d="M453.443 160.214l-119.7-8.6c-2.5-.2-4.7-1.7-5.6-4.1l-45.6-111c-6.3-15.3-20.5-24.8-37.1-24.8s-30.7 9.5-37.1 24.9l-45.7 111.1c-1 2.3-3.1 3.9-5.6 4.1l-119.5 8.6c-16.2.9-30 11.5-35.3 27.1-5.4 15.8-.9 32.4 11.9 43.3l92.5 76.4c1.9 1.6 2.8 4.2 2.2 6.6l-28.2 115.4c-3.3 12-1 24.4 6.3 34.1 7.5 9.8 19.2 15.7 31.5 15.7 7.6 0 15-2.3 21.1-6.4l101.1-62.9c2.1-1.3 4.8-1.3 6.9 0l102.1 62.7c6.4 4.3 13.8 6.6 21.3 6.6 11.5 0 22.9-5.5 30.3-14.8 7.7-9.6 10.5-22.1 7.7-34.6l-28.3-115.7c-.6-2.5.3-5.1 2.2-6.7l93.9-76.6c12.6-10.8 17.1-27.4 11.8-43.2-5.2-15.6-19.1-26.3-35.1-27.2zm7.7 51.5l-93.7 76.5c-9.2 7.5-13.4 19.9-10.5 31.5l28.3 115.5c1.5 6.8-1.2 11.5-3 13.7-2.8 3.5-7 5.7-11.2 5.7-2.6 0-5.2-.8-8-2.7l-102.5-63c-4.9-3-10.5-4.6-16.3-4.6s-11.5 1.6-16.4 4.7l-101.5 63.1c-6.5 4.3-15.2 2.4-19.8-3.6-1.9-2.5-3.9-6.8-2.1-13.1l28.3-115.8c2.8-11.5-1.3-23.8-10.4-31.3l-92.3-76.3c-7.3-6.3-5.3-14.4-4.5-16.7s4.1-10 13.7-10.5l119.7-8.6c11.8-.9 22-8.2 26.5-19.2l45.7-111.1c3.7-9 12-9.7 14.4-9.7 2.4 0 10.7.7 14.4 9.7l45.7 111.1c4.5 11 14.7 18.3 26.5 19.2l119.9 8.7c9.4.5 12.7 8.2 13.5 10.5.6 2.1 2.6 10.2-4.4 16.3z"></path></svg><svg width="64" height="64" viewBox="0 0 64 64" id="tools--color" y="11841"><defs><path id="a" d="M1285.54 1534.13v-22.44c0-4.17-3.13-7.54-7-7.54-3.86 0-7 3.38-7 7.54v22.44z"></path><path id="b" d="M1276.23 1534.13h4.62v31.7h-4.62z"></path><path id="c" d="M1249.7 1505.36h-7.24s-18.3.64-18.3 15.08c0 0 5.84-6.08 14.6-4.46 0 0 3.24 0 3.24 4.46v45.4h8.92v-45.29s-.4-4.6 4.16-4.6h7.7v-10.59z"></path><path id="d" d="M1263 1515.5v-10.14h-20.92s-14.7-.29-18.1 13.77c0 0 5.22-3.92 11.98-3.92 6.76 0 6.12 5.51 6.12 9.2h9.34v-5.75c0-1.8.7-3.17 11.59-3.17z"></path><path id="e" d="M1284.39 1511.7v17.13h-11.7v-17.16c0-3.53 2.63-6.4 5.86-6.4 3.22 0 5.84 2.87 5.84 6.4zm0 21.3h-11.7v-1.87h11.7zm-4.7 24.06h-2.3v-21.78h2.3zm-2.3 7.64v-5.34h2.3v5.34zm-7-53.03v22.44c0 .64.52 1.15 1.15 1.15h3.55V1567h6.9v-31.72h3.55c.63 0 1.15-.51 1.15-1.15v-22.44c0-4.8-3.66-8.69-8.15-8.69-4.5 0-8.15 3.87-8.15 8.67z"></path><path id="f" d="M1242.46 1506.51h11.47v8.4a4.72 4.72 0 0 0-2.8 1.45 6.07 6.07 0 0 0-1.36 4.23v2.7h-6.62v-2.87c0-4.33-2.73-5.55-4.27-5.61a17.53 17.53 0 0 0-13.35 3c2.02-10.66 16.31-11.28 16.93-11.3zm19.16 8.3h-5.4v-8.3h5.4zm-18.47 49.86v-39.1h6.62v39.13zm-19.43-43.16c.43.17.93.07 1.26-.27a16.25 16.25 0 0 1 10.82-4.39c.93 0 1.85.09 2.76.26h.2c.09 0 2.08.04 2.08 3.3v45.44c0 .64.52 1.15 1.15 1.15h8.93c.64 0 1.15-.51 1.15-1.15v-45.4c-.05-.9.22-1.8.76-2.52.6-.58 1.42-.88 2.25-.8h7.7c.63 0 1.14-.52 1.14-1.16v-10.61c0-.64-.51-1.15-1.15-1.15h-20.35c-.2 0-19.42.83-19.42 16.23 0 .47.28.9.72 1.07z"></path></defs><use fill="#00bad8" xlink:href="#a" opacity=".4" transform="translate(-1223 -1503)"></use><use fill="#fff" xlink:href="#b" transform="translate(-1223 -1503)"></use><use fill="#00bad8" xlink:href="#c" opacity=".4" transform="translate(-1223 -1503)"></use><use fill="#fff" xlink:href="#d" transform="translate(-1223 -1503)"></use><use fill="#00bad8" xlink:href="#e" transform="translate(-1223 -1503)"></use><use fill="#00bad8" xlink:href="#f" transform="translate(-1223 -1503)"></use></svg><svg viewBox="0 0 350 350" width="350" height="350" id="user" y="11905"><path d="M175 171.173c38.914 0 70.463-38.318 70.463-85.586C245.463 38.318 235.105 0 175 0s-70.465 38.318-70.465 85.587c0 47.268 31.549 85.586 70.465 85.586zM41.909 301.853c-.012-2.882-.024-.812 0 0zm266.176 2.251c.038-.789.013-5.474 0 0z"></path><path d="M307.935 298.397c-1.305-82.342-12.059-105.805-94.352-120.657 0 0-11.584 14.761-38.584 14.761s-38.586-14.761-38.586-14.761C55.018 192.43 43.61 215.545 42.11 295.722c-.123 6.547-.18 6.891-.202 6.131.005 1.424.011 4.058.011 8.651 0 0 19.592 39.496 133.08 39.496 113.486 0 133.08-39.496 133.08-39.496 0-2.951.002-5.003.005-6.399-.022.47-.066-.441-.149-5.708z"></path></svg></svg>