<?xml version="1.0" encoding="UTF-8" standalone="no"?>
<svg
   xmlns:dc="http://purl.org/dc/elements/1.1/"
   xmlns:cc="http://creativecommons.org/ns#"
   xmlns:rdf="http://www.w3.org/1999/02/22-rdf-syntax-ns#"
   xmlns:svg="http://www.w3.org/2000/svg"
   xmlns="http://www.w3.org/2000/svg"
   viewBox="0 0 595.27557 841.88977"
   id="svg34"
   height="841.88977"
   width="595.27557"
   version="1.1">
  <metadata
     id="metadata40">
    <rdf:RDF>
      <cc:Work
         rdf:about="">
        <dc:format>image/svg+xml</dc:format>
        <dc:type
           rdf:resource="http://purl.org/dc/dcmitype/StillImage" />
      </cc:Work>
    </rdf:RDF>
  </metadata>
  <defs
     id="defs38" />
  <g
     id="Layer1000">
    <path
       id="path2"
       style="fill:#01ff00;fill-rule:evenodd"
       d="m 179.5601,392.1148 c -0.0817,-0.0816 -0.1636,-0.1635 -0.2452,-0.3268 z m 0,0 v 0 z" />
    <path
       id="path4"
       style="fill:#5bb566;fill-rule:evenodd"
       d="m 193.5329,443.8389 c -2.1246,-0.0816 -6.537,-0.2452 -7.5994,-0.3268 -1.8794,-0.0817 -3.3503,-0.1636 -6.2918,-0.4085 -0.1636,0 -0.6537,-0.0816 -0.8989,-0.4085 -0.4084,-0.4085 -0.2452,-1.0621 -0.2452,-1.3073 0.1636,-1.0622 0.1636,-3.4319 0,-7.0274 0,-0.2452 0.0817,-0.7353 0.4085,-1.1441 0.4904,-0.7353 1.1441,-1.0621 1.389,-1.144 0.4904,-0.2452 0.8989,-0.2452 1.389,-0.3269 0,0 0.4084,-0.0816 0.8172,0 2.3698,0.0817 5.8017,0.8989 5.8017,0.8989 1.0621,0.2452 2.6966,0.6537 4.8211,1.1441 0.2452,0.0816 0.8173,0.3268 1.2257,0.8988 0.7353,0.8989 0.6537,1.9611 0.6537,2.2062 0,1.8794 0,3.8404 0,5.7198 0,0.0816 -0.0816,0.6537 -0.572,0.9805 -0.3266,0.2452 -0.7353,0.2452 -0.8986,0.2452 z" />
    <path
       id="path6"
       style="fill:#414443;fill-rule:evenodd"
       d="m 191.245,431.8271 c -3.5135,-0.7353 -7.109,-1.4709 -10.6225,-2.2062 -1.1441,0 -2.1246,-0.9805 -2.1246,-2.1246 l -3e-4,-15.2801 c 0,-1.1441 0.9805,-2.1246 2.1246,-2.1246 h 12.3387 c 1.144,0 2.1245,0.9805 2.1245,2.1246 0,6.2101 -0.0816,12.3386 -0.0816,18.5487 0,0.2452 0,0.4085 -0.0817,0.4904 -0.3271,0.7353 -1.7977,0.9803 -3.6771,0.5718 z" />
    <path
       id="path8"
       style="fill:#414443;fill-rule:evenodd"
       d="m 199.0077,374.3016 h -3.5138 v 13.5644 c 0,0 0,0.0816 0,0.1635 v 1.5526 c 0,0.1635 -0.0816,0.2452 -0.0816,0.4085 -0.4085,0.9805 -1.389,1.961 -2.6966,2.0429 -1.8794,0.0816 -2.9416,-1.7978 -3.1051,-2.0429 -0.2452,-0.4904 -0.4085,-0.9806 -0.4904,-1.3074 l 3e-4,-14.5451 h -3.9223 v 15.1985 c -0.0817,0.1636 -0.1636,0.4085 -0.2452,0.572 -0.1636,0.2452 -1.2257,2.2062 -3.1051,2.043 -1.3073,-0.0817 -2.2062,-1.0622 -2.6147,-1.961 v -15.8525 h -3.7587 v 25.4942 0 c 0,0.4085 -0.0816,0.8989 0,1.389 0,0.1636 0,0.2452 0.0816,0.4085 0.8173,3.9223 6.4554,7.1906 11.7666,7.0273 5.3113,0.1636 10.9494,-3.105 11.7667,-7.0273 0,-0.0817 0,-0.1636 0,-0.1636 l 0.0816,6e-4 v -26.9652 z" />
    <path
       id="path10"
       style="fill:#008027;fill-rule:evenodd"
       d="m 192.634,456.7493 h -12.0118 c -1.2257,0 -2.2878,-0.9805 -2.2878,-2.2879 v -5.9649 c 0,-1.2257 0.9805,-2.2878 2.2878,-2.2878 l 12.0118,-3e-4 c 1.2257,0 2.2879,0.9805 2.2879,2.2878 v 5.965 c 0,1.3076 -1.0622,2.2881 -2.2879,2.2881 z" />
    <path
       id="path12"
       style="fill:#34a829;fill-rule:evenodd"
       d="m 192.9609,467.9442 c -3.9223,0 -7.7627,0 -11.685,0 -0.2452,0 -0.8989,0 -1.6342,-0.4904 -0.8172,-0.6537 -0.8989,-1.4709 -0.9805,-1.6342 0,-1.6342 0,-3.2686 0,-4.9028 0,-0.8172 0.6537,-1.5525 1.5525,-1.5525 4.2492,-0.1636 8.498,-0.4085 12.8288,-0.5721 0.0816,0 0.6537,-0.1635 1.2257,0.2452 0.4085,0.2452 0.4904,0.6537 0.572,0.8172 0,3.2687 0,5.7198 -0.0816,6.7822 0,0.1636 0,0.5721 -0.3269,0.9805 -0.572,0.4901 -1.4708,0.3269 -1.4708,0.3269 z" />
    <path
       id="path14"
       style="fill:#414443;fill-rule:evenodd"
       d="m 217.3929,432.726 c -3.5135,-0.3269 -7.0273,-0.7354 -10.6225,-1.0622 -0.2452,-0.0816 -0.6537,-0.2452 -0.9805,-0.6537 -0.8989,-0.9805 -0.4904,-2.3697 -0.4085,-2.4514 -0.0816,-16.751 -0.1635,-33.4204 -0.1635,-50.1715 0,-2.6147 2.1245,-4.7392 4.7392,-4.7392 l 5.7198,-3e-4 c 2.6146,0 4.7392,2.1246 4.7392,4.7392 0,17.4864 0,35.0547 0,52.541 0,0.0817 -0.0816,1.0622 -0.9805,1.6342 -0.9805,0.5723 -1.961,0.2455 -2.0427,0.1639 z" />
    <path
       id="path16"
       style="fill:#008027;fill-rule:evenodd"
       d="m 217.8831,445.5547 h -8.0896 c -1.3073,0 -2.3697,-1.0621 -2.3697,-2.3698 0.0816,-2.2062 0.1635,-4.3307 0.2452,-6.5369 0,-0.0817 -0.2452,-0.9805 0.4084,-1.6342 0.5721,-0.6537 1.4709,-0.572 1.5526,-0.572 2.7782,0.1635 5.5565,0.3268 8.2531,0.572 1.3073,0 2.3697,1.0621 2.3697,2.3698 v 5.8016 c 0.0817,1.3074 -0.9805,2.3695 -2.3697,2.3695 z" />
    <path
       id="path18"
       style="fill:#34a829;fill-rule:evenodd"
       d="m 219.7627,455.442 c -0.3268,0.3268 -0.7353,0.4084 -0.8989,0.4084 -1.2257,0.2452 -4.8211,0.8173 -9.7236,1.5526 -0.2452,0 -0.8989,0 -1.3074,-0.4904 -0.4085,-0.4085 -0.4904,-0.8989 -0.4904,-1.2257 0.0817,-2.1246 0.1636,-3.7588 0.1636,-4.9028 0,-1.3074 0,-1.961 0.4085,-2.6147 0.8172,-1.1441 2.533,-1.1441 3.2686,-1.1441 2.533,0.0817 5.148,0.0817 7.681,0.1636 0.1636,0 0.4085,0.0816 0.7353,0.3268 0.3269,0.2452 0.4085,0.572 0.4904,0.7353 0.0817,1.5526 0.1636,3.1051 0.2452,4.6576 0.0814,0.8175 0.0814,1.9613 -0.5723,2.5334 z" />
    <path
       id="path20"
       style="fill:#5bb566;fill-rule:evenodd"
       d="m 218.1283,467.3721 c -0.1636,0.1636 -0.4085,0.3269 -0.7354,0.4904 -0.9805,0.5721 -1.6341,0.3269 -3.8403,0.3269 -2.043,0 -2.6966,0.1635 -3.5955,-0.3269 -0.3268,-0.1635 -0.572,-0.4085 -0.7353,-0.572 -0.572,-0.4904 -1.3073,-1.2257 -1.5525,-2.3698 -0.1636,-0.572 -0.0817,-0.7353 -0.0817,-2.2878 -0.0816,-2.2062 -0.2452,-2.6147 0,-3.0235 0.5721,-0.8988 1.961,-0.9805 2.7783,-1.0621 2.6966,-0.1636 5.6381,-0.4085 8.9883,-0.7353 0.1636,0 0.4085,0 0.5721,0.1636 0,0 0.1635,0.1635 0.2452,0.4084 0.1635,0.4085 0.0816,2.6966 -0.0817,5.7198 0,0.0816 0,0.0816 0,0.1635 -0.0816,0.4085 -0.2452,0.9805 -0.572,1.5526 -0.409,0.8166 -0.9808,1.307 -1.3895,1.5522 z" />
    <path
       id="path22"
       style="fill:#008027;fill-rule:evenodd"
       d="m 233.8016,453.0563 v 2.7587 c 0,1.8714 -0.1452,3.3233 -0.5162,4.5816 -0.2583,0.855 -0.6616,1.6455 -1.0647,2.3877 l -0.8229,0.0323 0.0969,3.7267 h 1.097 l 0.0967,-2.6136 h 6.8565 l 0.0969,2.6136 h 1.097 l 0.0967,-3.7267 -0.9519,-0.0323 v -9.728 z m 1.3067,1.1614 h 3.3719 v 8.5504 h -4.8076 c 0.3226,-0.5808 0.6613,-1.3068 0.8872,-2.065 0.3873,-1.226 0.5485,-2.6941 0.5485,-4.4365 z m 10.664,1.7263 c -2.162,0 -3.8719,1.5327 -3.8719,4.1462 0,2.4681 1.6294,4.017 3.7429,4.017 1.8873,0 3.888,-1.2583 3.888,-4.1463 0,-2.3876 -1.5165,-4.0169 -3.759,-4.0169 z m -0.0323,1.0647 c 1.6778,0 2.3391,1.6778 2.3391,3.0007 0,1.7586 -1.0162,3.0331 -2.3714,3.0331 -1.3873,0 -2.3715,-1.2906 -2.3715,-3.0008 0,-1.4842 0.7259,-3.033 2.4038,-3.033 z m 10.9057,5.5658 c -0.4034,0.1774 -0.9357,0.3872 -1.7425,0.3872 -1.5485,0 -2.7102,-1.1132 -2.7102,-2.92 0,-1.6293 0.9681,-2.9523 2.7587,-2.9523 0.7744,0 1.3068,0.1775 1.6455,0.3711 l 0.3226,-1.097 c -0.3869,-0.1936 -1.129,-0.4034 -1.9681,-0.4034 -2.5489,0 -4.1944,1.7425 -4.1944,4.1463 0,2.3876 1.5324,3.9846 3.888,3.9846 1.0485,0 1.8714,-0.2579 2.2425,-0.4515 z m 1.1616,-6.4531 v 1.1293 h 2.4361 v 6.679 h 1.4035 v -6.679 h 2.4361 v -1.1293 z m 13.019,7.8083 c -0.0967,-0.5323 -0.129,-1.1939 -0.129,-1.8714 v -2.92 c 0,-1.565 -0.5808,-3.1943 -2.9684,-3.1943 -0.9842,0 -1.9199,0.2744 -2.5651,0.6936 l 0.3226,0.9357 c 0.5485,-0.3549 1.3068,-0.5808 2.0327,-0.5808 1.5973,0 1.7748,1.1616 1.7748,1.8071 v 0.1613 c -3.0169,-0.0162 -4.6948,1.0162 -4.6948,2.9038 0,1.1293 0.8068,2.2425 2.3877,2.2425 1.1131,0 1.9522,-0.5485 2.3876,-1.1617 h 0.0485 l 0.1128,0.9842 z M 269.3259,461.3 c 0,0.1452 -0.032,0.3067 -0.0805,0.4519 -0.2259,0.6613 -0.8711,1.3067 -1.8876,1.3067 -0.7259,0 -1.3391,-0.4356 -1.3391,-1.3552 0,-1.5165 1.7587,-1.7906 3.3072,-1.7586 z m 3.6301,2.6297 c 0.4195,0.0323 1.3229,0.0967 2.194,0.0967 1.5327,0 4.1139,-0.258 4.1139,-2.3068 0,-1.1294 -0.839,-1.7748 -1.9842,-1.9361 v -0.032 c 0.8872,-0.1936 1.6293,-0.7906 1.6293,-1.7586 0,-1.7425 -2.162,-1.952 -3.4687,-1.952 -0.9196,0 -1.9358,0.0805 -2.4843,0.1775 z m 1.3552,-6.8403 c 0.3388,-0.0323 0.629,-0.0646 1.097,-0.0646 1.4196,0 2.0971,0.3711 2.0971,1.1455 0,0.9196 -1.0809,1.226 -2.1294,1.226 h -1.0647 z m -0.0161,3.2426 h 1.0323 c 1.3553,0 2.4846,0.2421 2.4846,1.3714 0,1.1293 -1.4199,1.3552 -2.3717,1.3552 -0.4516,0 -0.7422,-0.0161 -1.1452,-0.0646 z m 6.7595,-4.2106 v 7.8083 h 1.4034 v -3.4361 h 0.2744 c 1.3226,0 2.0489,0.5805 2.5812,1.8391 0.2418,0.6452 0.5162,1.2583 0.726,1.597 h 1.4842 c -0.3549,-0.6293 -0.6293,-1.3875 -0.8391,-1.9037 -0.6128,-1.4034 -1.3711,-2.2425 -2.6297,-2.3715 l 3.4041,-3.5331 h -1.7262 l -2.9362,3.388 h -0.3387 v -3.388 z m 13.5028,7.8083 c -0.0967,-0.5323 -0.129,-1.1939 -0.129,-1.8714 v -2.92 c 0,-1.565 -0.5808,-3.1943 -2.9684,-3.1943 -0.9842,0 -1.9199,0.2744 -2.5651,0.6936 l 0.3226,0.9357 c 0.5485,-0.3549 1.3068,-0.5808 2.0327,-0.5808 1.5973,0 1.7748,1.1616 1.7748,1.8071 v 0.1613 c -3.0169,-0.0162 -4.6948,1.0162 -4.6948,2.9038 0,1.1293 0.8068,2.2425 2.3877,2.2425 1.1131,0 1.9522,-0.5485 2.3876,-1.1617 h 0.0485 l 0.1128,0.9842 z M 293.057,461.3 c 0,0.1452 -0.032,0.3067 -0.0805,0.4519 -0.2259,0.6613 -0.8711,1.3067 -1.8876,1.3067 -0.7259,0 -1.3391,-0.4356 -1.3391,-1.3552 0,-1.5165 1.7586,-1.7906 3.3072,-1.7586 z m 7.7278,-0.9357 h 0.7098 c 1.1778,0 2.2748,0.2906 2.2748,1.3391 0,0.7744 -0.7421,1.3391 -1.9199,1.3391 -0.7421,0 -1.5001,-0.2259 -2.0647,-0.5324 l -0.3711,0.9519 c 0.6936,0.3869 1.6132,0.629 2.5328,0.629 1.6455,0 3.3718,-0.629 3.3718,-2.323 0,-1.1454 -0.9681,-1.8552 -2.1297,-1.9522 v -0.0323 c 0.8714,-0.1775 1.7586,-0.8065 1.7586,-1.7745 0,-1.5165 -1.4519,-2.0489 -2.6458,-2.0489 -0.9034,0 -1.8068,0.2259 -2.5974,0.7098 l 0.3549,0.8711 c 0.5485,-0.3387 1.2583,-0.5485 1.8876,-0.5485 0.8872,0 1.5165,0.4357 1.5165,1.1293 0,0.726 -0.8067,1.2745 -2.0004,1.2745 h -0.6778 z m 7.147,-4.2429 v 2.0327 c 0,1.097 -0.1451,2.1459 -0.4515,3.1136 -0.1775,0.5647 -0.4357,1.097 -0.7745,1.5973 l -0.6616,0.0162 0.0647,3.5331 h 1.1131 l 0.0646,-2.4846 h 5.4071 l 0.0647,2.4846 h 1.1157 l 0.0808,-3.5331 -0.8122,-0.0162 v -6.7436 z m 1.2583,1.0809 h 2.5654 v 5.6466 h -3.5978 c 0.2421,-0.4357 0.4677,-0.9196 0.6293,-1.4519 0.258,-0.8714 0.4031,-1.8715 0.4031,-2.9041 z m 9.6959,-1.2583 c -2.162,0 -3.8718,1.5327 -3.8718,4.1462 0,2.4681 1.6293,4.017 3.7428,4.017 1.8873,0 3.888,-1.2583 3.888,-4.1463 0,-2.3876 -1.5165,-4.0169 -3.759,-4.0169 z m -0.0323,1.0647 c 1.6778,0 2.3392,1.6778 2.3392,3.0007 0,1.7586 -1.0163,3.0331 -2.3715,3.0331 -1.3873,0 -2.3715,-1.2906 -2.3715,-3.0008 0,-1.4842 0.726,-3.033 2.4038,-3.033 z m 5.582,10.1154 h 1.4034 v -4.2429 h 0.0323 c 0.4677,0.7741 1.3714,1.226 2.4038,1.226 1.8391,0 3.5493,-1.3873 3.5493,-4.1944 0,-2.3718 -1.4199,-3.9688 -3.3072,-3.9688 -1.2745,0 -2.1943,0.5646 -2.7748,1.5165 h -0.0324 l -0.0646,-1.3391 h -1.2744 c 0.0323,0.7421 0.0646,1.5489 0.0646,2.5489 z m 1.4034,-7.7117 c 0,-0.1936 0.0485,-0.403 0.097,-0.5808 0.2741,-1.0647 1.1775,-1.7583 2.1455,-1.7583 1.5004,0 2.323,1.3391 2.323,2.9038 0,1.7909 -0.8711,3.0169 -2.3715,3.0169 -1.0162,0 -1.8714,-0.6775 -2.1294,-1.6617 -0.0323,-0.1774 -0.0646,-0.371 -0.0646,-0.5808 z m 11.0832,-3.4684 c -2.162,0 -3.8718,1.5327 -3.8718,4.1462 0,2.4681 1.6293,4.017 3.7428,4.017 1.8873,0 3.888,-1.2583 3.888,-4.1463 0,-2.3876 -1.5165,-4.0169 -3.759,-4.0169 z m -0.0323,1.0647 c 1.6778,0 2.3391,1.6778 2.3391,3.0007 0,1.7586 -1.0162,3.0331 -2.3714,3.0331 -1.3873,0 -2.3715,-1.2906 -2.3715,-3.0008 0,-1.4842 0.726,-3.033 2.4038,-3.033 z m 5.5497,6.921 c 0.4195,0.0323 1.3229,0.0967 2.194,0.0967 1.5327,0 4.1139,-0.258 4.1139,-2.3068 0,-1.1294 -0.8391,-1.7748 -1.9843,-1.9361 v -0.032 c 0.8873,-0.1936 1.6294,-0.7906 1.6294,-1.7586 0,-1.7425 -2.162,-1.952 -3.4688,-1.952 -0.9195,0 -1.9357,0.0805 -2.4842,0.1775 z m 1.3552,-6.8403 c 0.3387,-0.0323 0.629,-0.0646 1.097,-0.0646 1.4196,0 2.0971,0.3711 2.0971,1.1455 0,0.9196 -1.0809,1.226 -2.1294,1.226 h -1.0647 z m -0.0162,3.2426 h 1.0324 c 1.3553,0 2.4846,0.2421 2.4846,1.3714 0,1.1293 -1.4199,1.3552 -2.3718,1.3552 -0.4515,0 -0.7421,-0.0161 -1.1452,-0.0646 z m 6.7272,-4.2106 v 7.776 c 0.5808,0.0646 1.3068,0.1131 2.0974,0.1131 1.1452,0 2.5327,-0.1774 3.3877,-0.9037 0.5003,-0.4192 0.8229,-0.9839 0.8229,-1.7906 0,-2.0812 -1.8553,-2.6297 -3.6139,-2.6297 -0.4193,0 -0.9678,0.0161 -1.2906,0.0808 v -2.6459 z m 1.4035,3.6621 c 0.3228,-0.0482 0.6454,-0.0805 1.0165,-0.0805 1.0485,0 2.4681,0.2903 2.4681,1.6455 0,1.3068 -1.3711,1.6617 -2.4358,1.6617 -0.468,0 -0.7745,-0.0323 -1.0488,-0.0647 z m 12.3579,-3.5975 c -0.6775,-0.0807 -1.5812,-0.1612 -2.5166,-0.1612 -1.0165,0 -1.9684,0.1612 -2.6136,0.5323 -0.5969,0.3387 -1.0326,0.8872 -1.0326,1.694 0,1.1937 1.0488,1.8229 2.065,1.9358 v 0.0484 c -0.3549,0.0647 -0.6452,0.2421 -0.8872,0.4516 -0.6937,0.5808 -0.8873,1.5973 -1.2263,2.3556 -0.1451,0.3387 -0.3064,0.629 -0.4839,0.8872 h 1.5166 c 0.1128,-0.1936 0.2259,-0.4033 0.3225,-0.6454 0.3065,-0.758 0.5162,-1.726 1.0971,-2.194 0.3067,-0.2741 0.7097,-0.4354 1.3067,-0.4354 h 1.0488 v 3.2748 h 1.4035 z m -1.4035,3.5008 c -0.3228,0 -0.6292,0 -1.2101,0 -0.8387,0 -2.0812,-0.3549 -2.0812,-1.3552 0,-1.0809 1.1455,-1.3553 2.1135,-1.3553 0.5001,0 0.8227,0.0324 1.1778,0.0808 z m 7.0986,-3.5654 v 7.8083 h 1.4034 v -3.5331 h 3.7105 v 3.5331 h 1.4038 v -7.8083 h -1.4038 v 3.1459 h -3.7105 v -3.1459 z m 14.4547,7.8083 c -0.0967,-0.5323 -0.129,-1.1939 -0.129,-1.8714 v -2.92 c 0,-1.565 -0.5808,-3.1943 -2.9684,-3.1943 -0.9842,0 -1.92,0.2744 -2.5651,0.6936 l 0.3226,0.9357 c 0.5485,-0.3549 1.3067,-0.5808 2.0327,-0.5808 1.5973,0 1.7748,1.1616 1.7748,1.8071 v 0.1613 c -3.017,-0.0162 -4.6948,1.0162 -4.6948,2.9038 0,1.1293 0.8068,2.2425 2.3876,2.2425 1.1132,0 1.9523,-0.5485 2.3877,-1.1617 h 0.0484 l 0.1129,0.9842 z M 382.9167,461.3 c 0,0.1452 -0.032,0.3067 -0.0805,0.4519 -0.2259,0.6613 -0.8711,1.3067 -1.8876,1.3067 -0.726,0 -1.3391,-0.4356 -1.3391,-1.3552 0,-1.5165 1.7586,-1.7906 3.3072,-1.7586 z m 7.9214,-5.1786 v 2.0327 c 0,1.097 -0.1451,2.1459 -0.4515,3.1136 -0.1775,0.5647 -0.4357,1.097 -0.7745,1.5973 l -0.6616,0.0162 0.0646,3.5331 h 1.1132 l 0.0646,-2.4846 H 395.6 l 0.0647,2.4846 h 1.1157 l 0.0808,-3.5331 -0.8122,-0.0162 v -6.7436 z m 1.2583,1.0809 h 2.5654 v 5.6466 h -3.5978 c 0.2421,-0.4357 0.4677,-0.9196 0.6293,-1.4519 0.258,-0.8714 0.4031,-1.8715 0.4031,-2.9041 z m 9.6959,-1.2583 c -2.162,0 -3.8718,1.5327 -3.8718,4.1462 0,2.4681 1.6293,4.017 3.7428,4.017 1.8873,0 3.888,-1.2583 3.888,-4.1463 0,-2.3876 -1.5165,-4.0169 -3.759,-4.0169 z m -0.0323,1.0647 c 1.6778,0 2.3391,1.6778 2.3391,3.0007 0,1.7586 -1.0162,3.0331 -2.3714,3.0331 -1.3873,0 -2.3715,-1.2906 -2.3715,-3.0008 0,-1.4842 0.726,-3.033 2.4038,-3.033 z m 5.0817,6.921 h 1.3067 l 0.1936,-3.6944 c 0.0485,-0.8549 0.097,-1.8876 0.1293,-2.8071 h 0.0644 c 0.1936,0.7259 0.5323,1.8553 0.7744,2.5974 l 1.3875,3.8557 h 1.0324 l 1.5004,-3.9365 c 0.4357,-1.1937 0.6452,-1.823 0.8549,-2.5328 h 0.0485 c 0.0323,0.9519 0.0967,1.9523 0.1451,2.791 l 0.1775,3.7267 h 1.3552 l -0.5485,-7.8083 h -1.7586 l -1.2583,3.4041 c -0.3064,0.855 -0.7421,2.0971 -0.9196,2.6779 h -0.0323 c -0.1774,-0.6128 -0.5162,-1.5647 -0.7098,-2.1455 l -1.4196,-3.9365 h -1.7424 z" />
    <g
       id="Layer1001">
      <path
         id="path24"
         style="fill:#3ca928;fill-rule:evenodd"
         d="m 274.1014,427.2511 c 0,2.0429 -0.3268,3.9223 -0.8172,5.6381 -0.572,1.7161 -1.389,3.1867 -2.3697,4.4941 -0.9805,1.3073 -2.2062,2.3697 -3.5955,3.3502 -1.389,0.8989 -2.9415,1.7161 -4.6576,2.2879 -1.7161,0.572 -3.5136,1.0621 -5.3929,1.3073 -1.8794,0.3269 -4.004,0.4085 -6.3737,0.4085 l -15.5251,6e-4 c -0.9805,0 -1.7977,-0.3269 -2.533,-0.8989 -0.6537,-0.572 -0.9805,-1.5525 -0.9805,-2.8599 v -50.9071 c 0,-1.3073 0.3268,-2.2878 0.9805,-2.8599 0.6536,-0.572 1.5525,-0.8988 2.533,-0.8988 h 14.7081 c 3.5955,0 6.6186,0.3268 9.07,0.8988 2.4514,0.5721 4.576,1.5526 6.2918,2.6966 1.7161,1.2257 3.0235,2.7783 3.9223,4.6576 0.8989,1.8794 1.389,4.0856 1.389,6.6187 0,1.3889 -0.1636,2.7782 -0.572,4.0039 -0.3269,1.2257 -0.8989,2.3698 -1.5526,3.4319 -0.6536,1.0621 -1.5525,1.961 -2.533,2.6966 -0.9805,0.8172 -2.1246,1.389 -3.4319,1.8794 1.6342,0.3268 3.1867,0.8172 4.576,1.5525 1.3889,0.7353 2.6146,1.7161 3.6771,2.9415 1.0621,1.2257 1.8793,2.6147 2.4514,4.1672 0.4904,1.6345 0.7355,3.4322 0.7355,5.3932 z m -16.751,-23.86 c 0,-0.4085 0.0816,-1.5526 -0.1636,-2.6147 0,-0.1636 -0.2452,-1.0622 -0.7353,-1.7978 0,0 -0.0816,-0.0816 -0.0816,-0.0816 -0.1636,-0.1636 -0.4904,-0.6537 -1.0622,-0.9805 -0.0816,-0.0816 -0.1635,-0.0816 -0.2451,-0.1636 -0.0817,-0.0816 -0.5721,-0.2452 -1.2257,-0.4903 -0.4085,-0.0817 -0.9806,-0.2452 -1.6342,-0.2452 -2.2879,0 -4.4941,0 -6.7822,0.0816 0,3.9223 0,7.8443 0,11.7666 3.8404,0.0816 6.7822,0.0816 8.0079,0 0.3268,0 0.8172,-0.0816 1.389,-0.4085 0.2452,-0.0816 0.7353,-0.4084 1.2257,-1.144 1.1437,-1.3071 1.2254,-2.9413 1.3073,-3.922 z m 2.7782,24.9224 c 0.3269,-1.4709 0.1636,-2.6146 0.0817,-2.9415 -0.0817,-0.572 -0.2452,-1.3073 -0.7353,-2.2062 -0.4085,-0.6536 -0.8989,-1.0621 -1.2257,-1.3889 -0.6537,-0.5721 -1.3074,-0.8989 -2.043,-1.2258 -0.572,-0.2451 -1.0621,-0.4903 -1.3889,-0.572 -3.1051,0 -6.2102,0 -9.3153,0 0,4.2492 0,8.4164 0,12.6655 3.2687,0 6.4554,0 9.7237,0 0.6537,-0.0816 1.2257,-0.2452 1.5526,-0.4085 0.2452,-0.0816 0.7353,-0.3268 1.3073,-0.7353 0.3268,-0.2452 0.6537,-0.572 1.0621,-1.0621 0.654,-0.7362 0.8173,-1.5531 0.9808,-2.1252 z" />
      <path
         id="path26"
         style="fill:#3ca928;fill-rule:evenodd"
         d="m 319.7786,422.185 c 0.0817,0.2452 0.3269,1.7978 -0.6536,3.2687 -0.8989,1.3073 -2.2879,1.7161 -2.6147,1.7161 -7.681,0 -15.2802,0 -22.9612,0.0816 0,0.7353 0.0816,1.961 0.572,3.2686 0.2452,0.6537 0.7353,1.961 1.961,3.1051 1.7161,1.5525 3.9223,1.7161 5.3113,1.8794 0.2452,0 1.2257,0 3.1051,-0.0817 2.2878,-0.0816 3.5135,-0.1635 4.3308,-0.3268 0.8988,-0.1636 2.1245,-0.4085 3.5135,-1.0621 0.8172,-0.4085 1.4709,-0.8173 2.6966,-1.0622 1.2257,-0.2452 1.6342,0 1.8794,0.1636 0.4084,0.2452 0.572,0.7353 0.7353,1.144 0.2452,0.5721 0.2452,0.9805 0.2452,1.2257 0,0.3269 0,0.4904 0,0.9805 0,0.8173 0.0816,0.8173 0.0816,1.8794 0,0.6537 0,1.2257 -0.0816,1.7161 0,0.4904 -0.0817,0.8172 -0.1636,1.2257 -0.0816,0.3268 -0.1635,0.572 -0.2452,0.8172 -0.0816,0.2452 -0.2452,0.4085 -0.4904,0.6537 -0.1635,0.2452 -0.7353,0.4904 -1.5525,0.8172 -0.8989,0.3269 -1.961,0.7353 -3.2686,1.0622 -1.3074,0.3268 -2.8599,0.6536 -4.576,0.8988 -1.7161,0.2452 -3.5955,0.4085 -5.5565,0.4085 -3.5135,0 -6.6186,-0.4085 -9.3152,-1.3073 -2.6966,-0.8989 -4.9028,-2.2879 -6.7005,-4.0856 -1.7978,-1.7977 -3.1051,-4.0856 -4.004,-6.8638 -0.8988,-2.7782 -1.3073,-6.0469 -1.3073,-9.7237 0,-3.5135 0.4904,-6.7822 1.389,-9.5604 0.8988,-2.8599 2.2878,-5.2296 4.0039,-7.2723 1.7977,-1.961 3.9223,-3.5135 6.4553,-4.576 2.5331,-1.0621 5.393,-1.5525 8.498,-1.5525 3.3503,0 6.2102,0.4904 8.5799,1.4709 2.3698,0.9805 4.3308,2.3698 5.8017,4.0856 1.5525,1.7161 2.6147,3.8404 3.3503,6.2101 0.7353,2.3698 1.0621,4.9845 1.0621,7.7627 l 6e-4,1.633 z m -12.8287,-4.3307 c 0.0816,-0.4904 0.4904,-3.0235 -1.2257,-5.0661 -0.9805,-1.2257 -2.2879,-1.6342 -2.8599,-1.8794 -0.3268,-0.0816 -1.8794,-0.6537 -3.8404,-0.2452 -0.572,0.0817 -1.3889,0.2452 -2.2062,0.8173 -1.3073,0.8172 -1.961,2.0429 -2.2062,2.533 -0.8172,1.6342 -0.6536,3.1051 -0.572,3.8404 4.2488,0 8.5796,0 12.9104,0 z" />
    </g>
    <text
       id="text31"
       y="446.08081"
       x="330.13281">
      <tspan
         style="font-size:90.5px;font-family:Calibri;fill:#414443"
         id="tspan29"
         font-size="90.5000">Fit</tspan>
    </text>
  </g>
</svg>
